<?xml version="1.0" encoding="UTF-8"?>
<svg id="Layer_1" data-name="Layer 1" xmlns="http://www.w3.org/2000/svg" xmlns:xlink="http://www.w3.org/1999/xlink" viewBox="0 0 122.35 170.62">
  <defs>
    <style>
      .cls-1 {
        fill: none;
      }

      .cls-2 {
        fill: #231f20;
      }

      .cls-3 {
        clip-path: url(#clippath);
      }
    </style>
    <clipPath id="clippath">
      <rect class="cls-1" width="122.35" height="170.62"/>
    </clipPath>
  </defs>
  <g class="cls-3">
    <path class="cls-2" d="M.07.71c.86,1.45,1.73,2.9,2.6,4.35.87,1.45,1.74,2.89,2.62,4.34.88,1.44,1.76,2.89,2.64,4.33.88,1.44,1.77,2.88,2.66,4.32.89,1.44,1.78,2.87,2.68,4.31.89,1.43,1.79,2.87,2.69,4.3.9,1.43,1.81,2.86,2.71,4.29.91,1.43,1.82,2.85,2.73,4.28.91,1.43,1.83,2.85,2.75,4.27.92,1.42,1.84,2.84,2.77,4.26.92,1.42,1.85,2.83,2.79,4.25.93,1.41,1.87,2.83,2.8,4.24.94,1.41,1.88,2.82,2.82,4.23.94,1.41,1.89,2.81,2.84,4.22.95,1.4,1.9,2.81,2.86,4.21.95,1.4,1.91,2.79,2.86,4.18.96,1.4,1.93,2.79,2.9,4.19.97,1.39,1.94,2.79,2.91,4.18.97,1.39,1.95,2.78,2.93,4.17.98,1.39,1.96,2.77,2.95,4.16.99,1.39,1.97,2.77,2.97,4.15.99,1.38,1.99,2.76,2.98,4.14,1,1.38,2,2.75,3,4.13,1,1.37,2.01,2.74,3.02,4.11,1.01,1.37,2.02,2.74,3.03,4.11,1.01,1.36,2.03,2.72,3.04,4.08,1.02,1.36,2.04,2.72,3.07,4.08,1.03,1.36,2.06,2.72,3.09,4.07,1.03,1.36,2.07,2.71,3.11,4.06,1.04,1.35,2.08,2.7,3.12,4.05s2.09,2.69,3.14,4.04c1.05,1.34,2.1,2.69,3.16,4.03,1.06,1.34,2.11,2.68,3.18,4.02,1.06,1.34,2.12,2.67,3.19,4.01,1.07,1.33,2.14,2.66,3.21,3.99,1.07,1.33,2.15,2.66,3.23,3.98,1.08,1.32,2.16,2.65,3.24,3.97,1.08,1.32,2.17,2.64,3.26,3.96,1.09,1.32,2.18,2.63,3.28,3.95s2.19,2.63,3.29,3.94c1.06,1.26,2.12,2.52,3.19,3.78.09.1.17.18.31.22.12.03.29.02.4-.05.21-.12.36-.44.19-.65-1.11-1.31-2.21-2.61-3.31-3.92-1.1-1.31-2.2-2.62-3.29-3.94-1.1-1.31-2.19-2.63-3.28-3.95-1.09-1.32-2.17-2.64-3.26-3.96-1.08-1.32-2.16-2.65-3.24-3.97-1.08-1.32-2.15-2.65-3.23-3.98-1.07-1.33-2.14-2.66-3.21-3.99-1.07-1.33-2.13-2.67-3.19-4.01-1.06-1.34-2.12-2.68-3.17-4.02-1.06-1.34-2.11-2.68-3.16-4.03-1.05-1.34-2.1-2.69-3.14-4.04-1.04-1.35-2.08-2.7-3.12-4.05-1.04-1.35-2.07-2.71-3.1-4.06-1.03-1.36-2.06-2.71-3.09-4.07-1.03-1.36-2.05-2.72-3.07-4.08-1.02-1.36-2.03-2.72-3.04-4.08-1.01-1.37-2.03-2.74-3.04-4.11-1.01-1.37-2.01-2.74-3.02-4.12-1-1.37-2-2.75-3-4.13-1-1.38-1.99-2.76-2.98-4.14-.99-1.38-1.98-2.76-2.96-4.15-.99-1.39-1.97-2.77-2.95-4.16-.98-1.39-1.96-2.78-2.93-4.17-.97-1.39-1.94-2.78-2.91-4.18-.97-1.39-1.93-2.79-2.89-4.19-.96-1.39-1.91-2.79-2.86-4.18-.96-1.4-1.91-2.8-2.86-4.21-.95-1.4-1.9-2.81-2.84-4.22-.94-1.41-1.88-2.82-2.82-4.23-.94-1.41-1.87-2.82-2.8-4.24-.93-1.42-1.86-2.83-2.78-4.25-.92-1.42-1.85-2.84-2.77-4.26-.92-1.42-1.84-2.84-2.75-4.27-.91-1.43-1.82-2.85-2.73-4.28-.91-1.43-1.81-2.86-2.71-4.29-.9-1.43-1.8-2.86-2.69-4.3-.9-1.43-1.79-2.87-2.68-4.31-.89-1.44-1.77-2.88-2.66-4.32-.88-1.44-1.76-2.88-2.64-4.33-.88-1.44-1.75-2.89-2.62-4.34C2.63,3.02,1.8,1.63.97.23.84.02.49-.07.25.06.01.21-.07.48.07.71"/>
  </g>
</svg>