<?xml version="1.0" encoding="UTF-8"?>
<svg id="Layer_1" data-name="Layer 1" xmlns="http://www.w3.org/2000/svg" viewBox="0 0 805.9 79.59">
  <path d="M16.18,34.44c-.91.05-1.84.09-2.79.14-.82.05-1.76.07-2.82.07h-5.13c-.64,0-1.27-.02-1.9-.07-.14,3.67-.24,6.63-.31,8.87-.07,2.24-.16,3.98-.27,5.2-.11,1.22-.27,2.05-.48,2.48-.2.43-.47.65-.78.65-.27.05-.51-.04-.71-.27-.2-.23-.31-.45-.31-.68.09-1.72.18-3.26.27-4.62.09-1.36.17-2.92.24-4.69s.15-3.58.24-5.44c.09-1.86.16-3.67.2-5.44.04-1.77.07-3.35.07-4.76,0-1.59-.01-2.89-.03-3.91-.02-1.02-.06-1.84-.1-2.45-.05-.61-.09-1.06-.14-1.36-.05-.29-.09-.49-.14-.58-.23-.23-.34-.52-.34-.88,0-.27.11-.49.34-.65.23-.16.45-.24.68-.24.91,0,1.43.77,1.56,2.31.14,1.54.2,3.7.2,6.46,0,1.13-.01,2.36-.03,3.67-.02,1.32-.06,2.74-.1,4.28.59.05,1.2.07,1.84.07h1.9c1.09,0,2.15-.01,3.2-.03,1.04-.02,1.97-.04,2.79-.07.82-.02,1.74-.06,2.79-.1.63,0,1,.32,1.09.95,0,.73-.34,1.09-1.02,1.09ZM19.79,10.57c.27,0,.51.09.71.27.2.18.31.43.31.75,0,1.22-.07,3.13-.2,5.71s-.32,5.46-.54,8.64c-.23,3.17-.51,6.45-.85,9.83-.34,3.38-.71,6.45-1.12,9.21-.41,2.77-.85,5.03-1.33,6.8-.48,1.77-.96,2.65-1.46,2.65-.36,0-.62-.1-.78-.31-.16-.2-.24-.44-.24-.71v-.2c.36-1.54.72-3.41,1.09-5.61.36-2.2.71-4.56,1.05-7.07.34-2.52.66-5.13.95-7.85.29-2.72.54-5.36.75-7.92.2-2.56.36-4.97.48-7.24.11-2.27.17-4.24.17-5.92,0-.68.34-1.02,1.02-1.02Z"/>
  <path d="M28.97,36.55c-.05.27-.17.51-.37.71-.2.2-.51.44-.92.71-.14.09-.41.27-.82.54-.41.27-.87.56-1.39.85-.52.3-1.1.57-1.73.82-.64.25-1.27.42-1.9.51-.32,0-.6-.08-.85-.24-.25-.16-.37-.42-.37-.78,0-.18.29-.51.88-.99.59-.48,1.27-.96,2.04-1.46.77-.5,1.54-.94,2.31-1.33.77-.38,1.36-.58,1.77-.58.36,0,.68.1.95.31s.41.47.41.78v.14ZM22.58,45.73c.68,0,1.02.34,1.02,1.02v.14s-.02.23-.07.54c-.05.36-.09.92-.14,1.67-.05.75-.1,1.53-.17,2.35s-.13,1.6-.17,2.35c-.05.75-.07,1.28-.07,1.6,0,.41.02.71.07.92.04.2.08.34.1.41.02.07.06.14.1.2.04.07.07.17.07.31,0,.32-.1.57-.31.75-.2.18-.44.27-.71.27-.09,0-.22.01-.37.03-.16.02-.31-.05-.44-.2-.14-.16-.26-.47-.37-.92-.11-.45-.17-1.13-.17-2.04,0-1.31.02-2.54.07-3.67.04-1.13.14-2.13.27-2.99.14-.86.31-1.53.51-2.01s.46-.71.78-.71Z"/>
  <path d="M40.66,37.44c0,.5-.19.8-.58.89-.39.09-.76.14-1.12.14.32.05.55.28.71.71.16.43.26.97.31,1.6.04.64.06,1.33.03,2.08-.02.75-.03,1.44-.03,2.08,0,9.13-1.03,16.06-3.09,20.81-2.06,4.74-5.16,7.12-9.28,7.12-2.45,0-4.4-.17-5.85-.51-1.45-.34-2.54-.77-3.26-1.29-.72-.52-1.19-1.09-1.39-1.7-.2-.61-.31-1.19-.31-1.73,0-.27.1-.51.31-.71.2-.2.44-.31.71-.31s.51.1.71.31.31.44.31.71c0,1.18.71,2.01,2.14,2.48,1.43.48,3.64.71,6.63.71,2.08,0,3.78-.75,5.1-2.25,1.31-1.5,2.35-3.39,3.09-5.68.75-2.29,1.27-4.81,1.56-7.55.29-2.74.49-5.36.58-7.86-.68.82-1.47,1.61-2.38,2.36-.91.75-1.84,1.13-2.79,1.13s-1.67-.32-2.28-.96c-.61-.64-.92-1.55-.92-2.73,0-1.27.27-2.56.82-3.86.54-1.3,1.28-2.46,2.21-3.48.93-1.02,2.01-1.87,3.23-2.53,1.22-.66,2.49-.99,3.81-.99.27,0,.51.09.71.27.2.18.31.43.31.75ZM37.81,39.56c0-.5.18-.82.54-.96-1,.23-1.92.66-2.75,1.3-.84.64-1.55,1.37-2.14,2.19-.59.82-1.04,1.69-1.36,2.6-.32.91-.48,1.71-.48,2.39,0,.55.07.99.2,1.33.14.34.45.51.95.51s1.21-.4,2.14-1.2c.93-.8,1.89-1.99,2.89-3.59l.14-.14c0-.87-.01-1.67-.03-2.43-.02-.75-.06-1.42-.1-2.02Z"/>
  <path d="M50.8,40.9c.95,0,1.65.42,2.11,1.26.45.84.68,1.98.68,3.43,0,.68-.07,1.69-.2,3.03-.14,1.34-.32,2.68-.54,4.01-.23,1.34-.5,2.52-.82,3.54-.32,1.02-.66,1.53-1.02,1.53-.32,0-.57-.1-.75-.31-.18-.2-.27-.44-.27-.71v-.14c.14-.59.28-1.33.44-2.21.16-.88.33-1.82.51-2.82.18-1,.33-2.01.44-3.03.11-1.02.17-1.94.17-2.75,0-.68-.03-1.21-.1-1.6-.07-.38-.15-.67-.24-.85-.09-.18-.23-.29-.41-.34-.91,0-1.78.39-2.62,1.16-.84.77-1.62,1.61-2.35,2.52-.73.91-1.37,1.75-1.94,2.52-.57.77-1.05,1.16-1.46,1.16-.32,0-.58-.11-.78-.34-.2-.23-.31-.5-.31-.82,0-.23.19-1.09.58-2.58.38-1.5.85-3.33,1.39-5.51.54-2.18,1.14-4.56,1.8-7.14.66-2.58,1.26-5.08,1.8-7.48.5-2.27.83-4.02.99-5.27.16-1.25.24-2.19.24-2.82,0-.5-.03-.83-.1-.99-.07-.16-.1-.33-.1-.51,0-.23.09-.45.27-.68.18-.23.43-.34.75-.34.36,0,.66.18.88.54.23.36.34,1.04.34,2.04,0,.77-.09,1.8-.27,3.09-.18,1.29-.52,3.07-1.02,5.34-.68,3.22-1.47,6.49-2.38,9.83-.91,3.33-1.68,6.29-2.31,8.87.86-1.09,1.85-2.13,2.96-3.13,1.11-1,2.32-1.5,3.64-1.5Z"/>
  <path d="M61.27,27.51c-.41,2.31-.87,4.91-1.39,7.79-.52,2.88-1,5.63-1.43,8.26-.43,2.63-.81,4.9-1.12,6.8-.32,1.9-.48,3.04-.48,3.4,0,.32-.1.57-.31.75-.2.18-.44.27-.71.27s-.51-.09-.71-.27c-.2-.18-.31-.43-.31-.75,0-.36.11-1.31.34-2.86.23-1.54.54-3.5.95-5.88.41-2.38.88-5.1,1.43-8.16s1.11-6.31,1.7-9.76c.45-2.54.8-4.58,1.05-6.12.25-1.54.45-2.72.61-3.54.16-.82.33-1.35.51-1.6.18-.25.45-.37.82-.37.27.05.5.18.68.41.18.23.27.48.27.75l-1.9,10.88Z"/>
  <path d="M72.15,36.55c-.05.27-.17.51-.37.71-.2.2-.51.44-.92.71-.14.09-.41.27-.82.54-.41.27-.87.56-1.39.85-.52.3-1.1.57-1.73.82-.64.25-1.27.42-1.9.51-.32,0-.6-.08-.85-.24-.25-.16-.37-.42-.37-.78,0-.18.29-.51.88-.99.59-.48,1.27-.96,2.04-1.46.77-.5,1.54-.94,2.31-1.33.77-.38,1.36-.58,1.77-.58.36,0,.68.1.95.31s.41.47.41.78v.14ZM65.76,45.73c.68,0,1.02.34,1.02,1.02v.14s-.02.23-.07.54c-.05.36-.09.92-.14,1.67-.05.75-.1,1.53-.17,2.35s-.13,1.6-.17,2.35c-.05.75-.07,1.28-.07,1.6,0,.41.02.71.07.92.04.2.08.34.1.41.02.07.06.14.1.2.04.07.07.17.07.31,0,.32-.1.57-.31.75-.2.18-.44.27-.71.27-.09,0-.22.01-.37.03-.16.02-.31-.05-.44-.2-.14-.16-.26-.47-.37-.92-.11-.45-.17-1.13-.17-2.04,0-1.31.02-2.54.07-3.67.04-1.13.14-2.13.27-2.99.14-.86.31-1.53.51-2.01s.46-.71.78-.71Z"/>
  <path d="M83.84,37.44c0,.5-.19.8-.58.89-.39.09-.76.14-1.12.14.32.05.55.28.71.71.16.43.26.97.31,1.6.04.64.06,1.33.03,2.08-.02.75-.03,1.44-.03,2.08,0,9.13-1.03,16.06-3.09,20.81-2.06,4.74-5.16,7.12-9.28,7.12-2.45,0-4.4-.17-5.85-.51-1.45-.34-2.54-.77-3.26-1.29-.72-.52-1.19-1.09-1.39-1.7-.2-.61-.31-1.19-.31-1.73,0-.27.1-.51.31-.71.2-.2.44-.31.71-.31s.51.1.71.31.31.44.31.71c0,1.18.71,2.01,2.14,2.48,1.43.48,3.64.71,6.63.71,2.08,0,3.78-.75,5.1-2.25,1.31-1.5,2.35-3.39,3.09-5.68.75-2.29,1.27-4.81,1.56-7.55.29-2.74.49-5.36.58-7.86-.68.82-1.47,1.61-2.38,2.36-.91.75-1.84,1.13-2.79,1.13s-1.67-.32-2.28-.96c-.61-.64-.92-1.55-.92-2.73,0-1.27.27-2.56.82-3.86.54-1.3,1.28-2.46,2.21-3.48.93-1.02,2.01-1.87,3.23-2.53,1.22-.66,2.49-.99,3.81-.99.27,0,.51.09.71.27.2.18.31.43.31.75ZM80.99,39.56c0-.5.18-.82.54-.96-1,.23-1.92.66-2.75,1.3-.84.64-1.55,1.37-2.14,2.19-.59.82-1.04,1.69-1.36,2.6-.32.91-.48,1.71-.48,2.39,0,.55.07.99.2,1.33.14.34.45.51.95.51s1.21-.4,2.14-1.2c.93-.8,1.89-1.99,2.89-3.59l.14-.14c0-.87-.01-1.67-.03-2.43-.02-.75-.06-1.42-.1-2.02Z"/>
  <path d="M93.98,40.9c.95,0,1.65.42,2.11,1.26.45.84.68,1.98.68,3.43,0,.68-.07,1.69-.2,3.03-.14,1.34-.32,2.68-.54,4.01-.23,1.34-.5,2.52-.82,3.54-.32,1.02-.66,1.53-1.02,1.53-.32,0-.57-.1-.75-.31-.18-.2-.27-.44-.27-.71v-.14c.14-.59.28-1.33.44-2.21.16-.88.33-1.82.51-2.82.18-1,.33-2.01.44-3.03.11-1.02.17-1.94.17-2.75,0-.68-.03-1.21-.1-1.6-.07-.38-.15-.67-.24-.85-.09-.18-.23-.29-.41-.34-.91,0-1.78.39-2.62,1.16-.84.77-1.62,1.61-2.35,2.52-.73.91-1.37,1.75-1.94,2.52-.57.77-1.05,1.16-1.46,1.16-.32,0-.58-.11-.78-.34-.2-.23-.31-.5-.31-.82,0-.23.19-1.09.58-2.58.38-1.5.85-3.33,1.39-5.51.54-2.18,1.14-4.56,1.8-7.14.66-2.58,1.26-5.08,1.8-7.48.5-2.27.83-4.02.99-5.27.16-1.25.24-2.19.24-2.82,0-.5-.03-.83-.1-.99-.07-.16-.1-.33-.1-.51,0-.23.09-.45.27-.68.18-.23.43-.34.75-.34.36,0,.66.18.88.54.23.36.34,1.04.34,2.04,0,.77-.09,1.8-.27,3.09-.18,1.29-.52,3.07-1.02,5.34-.68,3.22-1.47,6.49-2.38,9.83-.91,3.33-1.68,6.29-2.31,8.87.86-1.09,1.85-2.13,2.96-3.13,1.11-1,2.32-1.5,3.64-1.5Z"/>
  <path d="M115.19,33.01c.41.18.61.52.61,1.02,0,.32-.1.56-.31.71-.2.16-.42.24-.65.24s-.5-.06-.82-.17c-.32-.11-.98-.17-1.97-.17-.54,0-1.21.07-2.01.2-.79.14-1.71.2-2.75.2-1.59,6.3-2.94,11.2-4.05,14.69-1.11,3.49-2.12,5.24-3.03,5.24-.32,0-.58-.1-.78-.31-.2-.2-.31-.44-.31-.71s.01-.4.03-.37c.02.02.08-.03.17-.17.09-.14.26-.45.51-.95.25-.5.59-1.39,1.02-2.69.43-1.29,1-3.08,1.7-5.37.7-2.29,1.55-5.29,2.55-9.01-1.86.32-3.34.6-4.45.85-1.11.25-1.64.35-1.6.31-.68,0-1.02-.36-1.02-1.09,0-.23-.01-.41-.03-.54-.02-.14.17-.26.58-.37.41-.11,1.14-.27,2.21-.48,1.06-.2,2.69-.49,4.86-.85.86-3.22,1.54-5.89,2.04-8.02.5-2.13.91-3.83,1.22-5.1.32-1.27.6-2.16.85-2.69.25-.52.55-.78.92-.78.27,0,.49.11.65.34.16.23.24.45.24.68v.2c-.05.18-.17.73-.37,1.63-.2.91-.48,2.04-.82,3.4-.34,1.36-.73,2.91-1.16,4.66-.43,1.75-.9,3.55-1.39,5.41.82-.09,1.57-.17,2.28-.24.7-.07,1.35-.1,1.94-.1,1.31,0,2.36.14,3.13.41Z"/>
  <path d="M154.36,56.68c.27,0,.52.07.75.2.23.14.34.36.34.68,0,.72-.3,1.11-.88,1.16-.45,0-.92-.16-1.39-.48-.47-.32-.9-.86-1.27-1.63-.37-.77-.68-1.79-.92-3.06-.24-1.27-.36-2.86-.36-4.76-.73.73-1.36,1.37-1.9,1.94-.54.57-1.05,1.03-1.53,1.39-.48.36-.94.65-1.39.85-.45.2-.95.31-1.5.31-1.5,0-2.62-.5-3.37-1.5-.75-1-1.12-2.24-1.12-3.74s.29-2.95.88-4.49c.59-1.54,1.36-2.93,2.31-4.18.95-1.25,2.03-2.28,3.23-3.09,1.2-.82,2.39-1.22,3.57-1.22s2.28.16,3.16.48c.88.32,1.35.48,1.39.48.41.23.61.54.61.95,0,.36-.11.62-.34.78-.23.16-.45.24-.68.24-.09,0-.4-.15-.92-.44-.52-.29-1.6-.44-3.23-.44-.91,0-1.83.35-2.75,1.05-.93.7-1.78,1.6-2.55,2.69-.77,1.09-1.41,2.27-1.9,3.54-.5,1.27-.75,2.47-.75,3.6,0,1.04.18,1.85.54,2.41.36.57,1,.85,1.9.85.45,0,1.03-.27,1.73-.82.7-.54,1.37-1.16,2.01-1.84.63-.68,1.19-1.34,1.67-1.97.48-.63.71-1.04.71-1.22.04-.5.05-1.11.03-1.84-.02-.72-.01-1.42.03-2.07.04-.66.14-1.21.3-1.67.15-.45.41-.68.76-.68.26,0,.5.08.72.24.22.16.33.4.33.71,0,.73-.02,1.45-.07,2.18-.05.73-.07,1.45-.07,2.18,0,2.09.07,3.94.2,5.58.14,1.72.31,3.04.51,3.94.2.91.41,1.56.61,1.97.2.41.36.64.48.68.11.05.15.07.1.07Z"/>
  <path d="M168.77,41.58c1.31,0,1.97,1,1.97,2.99,0,.68-.13,1.71-.37,3.09-.25,1.38-.57,2.78-.95,4.18-.39,1.41-.84,2.64-1.36,3.71-.52,1.07-1.05,1.6-1.6,1.6-.27,0-.52-.09-.75-.27-.23-.18-.34-.41-.34-.68s.11-.52.34-.75c.09-.14.31-.67.65-1.6.34-.93.68-1.98,1.02-3.16.34-1.18.65-2.35.92-3.5.27-1.16.41-2.03.41-2.62,0-.5-.02-.82-.07-.95-.45.05-1.04.31-1.77.78-.73.48-1.63,1.44-2.72,2.89-.77.95-1.45,1.96-2.04,3.03-.59,1.07-1.15,2.04-1.67,2.92-.52.88-.99,1.61-1.39,2.18-.41.57-.77.85-1.09.85-.36,0-.64-.11-.82-.34-.18-.23-.27-.48-.27-.75,0,.05.08-.18.24-.68.16-.5.33-1.19.51-2.07.18-.88.35-1.95.51-3.2.16-1.25.24-2.62.24-4.11,0-.72-.08-1.46-.24-2.21-.16-.75-.24-1.48-.24-2.21,0-.27.1-.51.31-.71.2-.2.46-.31.78-.31.36,0,.63.22.82.65.18.43.32.93.41,1.5.09.57.15,1.16.17,1.77.02.61.03,1.12.03,1.53,0,.82-.03,1.61-.1,2.38-.07.77-.15,1.5-.24,2.18,3.17-5.39,6.07-8.09,8.7-8.09Z"/>
  <path d="M184.34,35.94c.14.82.2,2.47.2,4.96s-.11,5.37-.34,8.77c-.23,3.4-.68,6.87-1.36,10.4-.54,2.86-1.27,5.48-2.18,7.89-.91,2.4-1.94,4.46-3.09,6.19-1.16,1.72-2.4,3.06-3.74,4.01-1.34.95-2.73,1.43-4.18,1.43-1.18,0-2.18-.14-2.99-.41-.82-.27-1.47-.62-1.97-1.05-.5-.43-.86-.9-1.09-1.39-.23-.5-.34-1-.34-1.5,0-.23.08-.44.24-.65.16-.2.4-.31.71-.31.45,0,.75.17.88.51.14.34.33.71.58,1.12.25.41.65.78,1.19,1.12.54.34,1.47.51,2.79.51s2.61-.47,3.74-1.39c1.13-.93,2.14-2.18,3.03-3.74.88-1.56,1.67-3.36,2.35-5.37.68-2.02,1.26-4.13,1.73-6.32.48-2.2.85-4.39,1.12-6.56.27-2.18.48-4.19.61-6.05-1.45,2.99-3.08,4.49-4.9,4.49-.82,0-1.52-.36-2.11-1.09-.59-.72-1.08-1.64-1.46-2.75-.39-1.11-.69-2.35-.92-3.71-.23-1.36-.4-2.69-.51-3.98-.11-1.29-.19-2.47-.24-3.54-.05-1.06-.07-1.87-.07-2.41,0-.27.1-.51.31-.71.2-.2.44-.31.71-.31.32,0,.57.1.75.31.18.2.27.44.27.71,0,.36.02,1,.07,1.9.04.91.11,1.94.2,3.09.09,1.16.23,2.35.41,3.57.18,1.22.38,2.35.61,3.37.23,1.02.51,1.86.85,2.52.34.66.71.99,1.12.99.54,0,1.12-.44,1.73-1.33.61-.88,1.17-1.87,1.67-2.96.5-1.09.89-2.11,1.19-3.06.29-.95.42-1.5.37-1.63l.2-.41c0-1.18-.01-2.2-.03-3.06-.02-.86-.08-1.5-.17-1.9,0-.63.29-1.02.88-1.16.27,0,.52.07.75.2.23.14.36.36.41.68Z"/>
  <path d="M214.36,34.44c-.11.82-.24,1.78-.37,2.89-.14,1.11-.28,2.29-.44,3.54-.16,1.25-.3,2.41-.41,3.5-.11,1.09-.22,2.03-.31,2.82-.09.79-.14,1.26-.14,1.39,1-1,1.77-1.86,2.31-2.58.54-.72,1-1.33,1.36-1.8.36-.48.68-.83.95-1.05.27-.23.63-.34,1.09-.34.72,0,1.21.5,1.46,1.5.25,1,.44,2.1.58,3.3.14,1.2.29,2.3.48,3.3.18,1,.57,1.5,1.16,1.5.54-.27,1.06-.78,1.56-1.53.5-.75,1.12-1.91,1.87-3.5.75-1.59,1.6-3.85,2.55-6.8.86-2.67,1.53-4.93,2.01-6.77s.85-3.32,1.12-4.45c.27-1.13.51-1.95.71-2.45.2-.5.46-.75.78-.75s.58.11.78.34c.2.23.31.48.31.75,0,.23-.1.77-.31,1.63-.2.86-.48,1.94-.82,3.23-.34,1.29-.74,2.72-1.19,4.28-.45,1.56-.95,3.14-1.5,4.73-1.54,4.58-2.94,7.95-4.18,10.1-1.25,2.15-2.48,3.23-3.71,3.23-.77,0-1.39-.32-1.87-.95-.48-.63-.86-1.42-1.16-2.35-.3-.93-.51-1.91-.65-2.96-.14-1.04-.25-1.99-.34-2.86-.95.95-1.72,1.81-2.31,2.58-.59.77-1.09,1.41-1.5,1.9-.41.5-.77.88-1.09,1.16-.32.27-.7.41-1.16.41-.14,0-.28-.01-.44-.03-.16-.02-.32-.11-.48-.27-.16-.16-.28-.42-.37-.78-.09-.36-.14-.91-.14-1.63,0-.86.04-1.88.14-3.06.09-1.18.21-2.4.37-3.67.16-1.27.34-2.53.54-3.77.2-1.25.42-2.36.65-3.33.23-.97.45-1.77.68-2.38.23-.61.45-.92.68-.92.36,0,.62.11.78.34.16.23.24.45.24.68v.27l-.07.07c-.05.23-.13.75-.24,1.56Z"/>
  <path d="M240.85,42.81c0,1.18-.2,2.48-.61,3.91-.41,1.43-.98,2.78-1.7,4.05-.73,1.27-1.55,2.32-2.48,3.16-.93.84-1.92,1.26-2.96,1.26-.95,0-1.69-.35-2.21-1.05-.52-.7-.78-1.71-.78-3.03,0-.86.14-1.94.41-3.23s.68-2.56,1.22-3.81c.54-1.25,1.22-2.37,2.04-3.37.82-1,1.77-1.63,2.86-1.9.14-.27.38-.41.75-.41,1.04,0,1.88.39,2.52,1.16.63.77.95,1.86.95,3.26ZM233.09,53.14c.59,0,1.22-.34,1.9-1.02s1.3-1.53,1.87-2.55c.57-1.02,1.03-2.13,1.39-3.33.36-1.2.54-2.35.54-3.43,0-1.36-.3-2.11-.88-2.24-.18.09-.36.14-.54.14-.54,0-1.12.36-1.73,1.09-.61.73-1.18,1.62-1.7,2.69-.52,1.07-.95,2.2-1.29,3.4-.34,1.2-.51,2.28-.51,3.23,0,.59.06,1.08.17,1.46.11.39.37.58.78.58Z"/>
  <path d="M243.02,55.25c-.77,0-1.16-.5-1.16-1.5,0-.41.11-1.23.34-2.48.23-1.25.59-2.73,1.09-4.45.09-.32.25-.93.48-1.84.23-.91.51-1.84.85-2.79.34-.95.69-1.79,1.05-2.52.36-.72.72-1.09,1.09-1.09.32,0,.58.1.78.31s.31.44.31.71c-.18.41-.41,1.02-.68,1.84-.23.68-.52,1.58-.88,2.69-.36,1.11-.79,2.53-1.29,4.25.59-1.04,1.35-2.27,2.28-3.67.93-1.4,1.95-2.75,3.06-4.05,1.11-1.29,2.27-2.38,3.47-3.26,1.2-.88,2.35-1.33,3.43-1.33.63,0,1.18.15,1.63.44.45.3.68.65.68,1.05,0,.73-.32,1.09-.95,1.09-.36,0-.61-.09-.75-.27-.14-.18-.34-.27-.61-.27-.23,0-.52.07-.88.2-.36.14-.82.41-1.36.82-2.09,1.59-3.8,3.32-5.13,5.2-1.34,1.88-2.43,3.63-3.26,5.24-.84,1.61-1.53,2.96-2.07,4.05-.54,1.09-1.04,1.63-1.5,1.63Z"/>
  <path d="M268.25,42.6c-.27,1.32-.48,2.63-.61,3.94-.14,1.32-.2,2.54-.2,3.67,0,1.5.17,2.79.51,3.88s.51,1.81.51,2.18c0,.32-.1.57-.31.75-.2.18-.44.27-.71.27-.35,0-.66-.21-.92-.65-.26-.43-.48-.99-.66-1.67-.17-.68-.29-1.43-.36-2.24-.07-.82-.1-1.61-.1-2.38,0-.72.03-1.46.1-2.21.07-.75.15-1.51.24-2.28-1.48,2.31-2.88,4-4.18,5.07-1.3,1.07-2.47,1.6-3.5,1.6s-1.68-.28-1.96-.85c-.28-.57-.42-1.12-.42-1.67,0-.59.1-1.23.31-1.94.2-.7.48-1.42.82-2.14.34-.72.71-1.44,1.12-2.14.41-.7.82-1.33,1.22-1.87.27-.41.65-.91,1.12-1.5.48-.59,1-1.16,1.56-1.7.57-.54,1.18-1.02,1.84-1.43.66-.41,1.3-.61,1.94-.61.74,0,1.35.18,1.84.54.63-2.27,1.37-4.57,2.21-6.9.84-2.33,1.76-4.66,2.75-6.97,1.59-3.63,2.89-6.16,3.91-7.62,1.02-1.45,1.82-2.18,2.41-2.18.41,0,.77.15,1.09.44.32.3.48.76.48,1.39,0,.77-.42,2.28-1.26,4.52s-2.19,5.25-4.05,9.01c-1.45,2.86-2.6,5.11-3.43,6.77-.84,1.66-1.5,2.94-1.97,3.84-.48.91-.8,1.55-.99,1.94-.18.39-.3.76-.34,1.12ZM263.64,45.32c.99-1.36,1.74-2.54,2.26-3.54.52-1,.85-1.74.98-2.24-.05-.14-.16-.31-.34-.51-.18-.2-.5-.31-.95-.31-.58,0-1.33.47-2.22,1.39-.9.93-1.77,2.01-2.6,3.23-.83,1.22-1.55,2.47-2.16,3.74-.61,1.27-.91,2.24-.91,2.92,0,.23.04.39.14.48.09,0,.27-.01.54-.03.27-.02.64-.18,1.11-.48.47-.29,1.05-.8,1.72-1.53.67-.72,1.48-1.77,2.43-3.13ZM274.03,24.92c-.5,1.09-.95,2.19-1.36,3.3-.41,1.11-.82,2.21-1.22,3.3,1.81-3.4,3.29-6.41,4.42-9.04,1.13-2.63,1.86-4.51,2.18-5.64-.45.73-1.02,1.75-1.7,3.06-.68,1.32-1.45,2.99-2.31,5.03Z"/>
  <path d="M315.98,33.01c.41.18.61.52.61,1.02,0,.32-.1.56-.31.71-.2.16-.42.24-.65.24s-.5-.06-.82-.17c-.32-.11-.97-.17-1.97-.17-.54,0-1.21.07-2.01.2-.79.14-1.71.2-2.75.2-1.59,6.3-2.94,11.2-4.05,14.69-1.11,3.49-2.12,5.24-3.03,5.24-.32,0-.58-.1-.78-.31s-.31-.44-.31-.71.01-.4.03-.37c.02.02.08-.03.17-.17.09-.14.26-.45.51-.95.25-.5.59-1.39,1.02-2.69.43-1.29,1-3.08,1.7-5.37.7-2.29,1.55-5.29,2.55-9.01-1.86.32-3.34.6-4.45.85-1.11.25-1.64.35-1.6.31-.68,0-1.02-.36-1.02-1.09,0-.23-.01-.41-.03-.54-.02-.14.17-.26.58-.37.41-.11,1.14-.27,2.21-.48,1.06-.2,2.69-.49,4.86-.85.86-3.22,1.54-5.89,2.04-8.02.5-2.13.91-3.83,1.22-5.1.32-1.27.6-2.16.85-2.69.25-.52.55-.78.92-.78.27,0,.49.11.65.34.16.23.24.45.24.68v.2c-.05.18-.17.73-.37,1.63-.2.91-.48,2.04-.82,3.4s-.73,2.91-1.16,4.66c-.43,1.75-.9,3.55-1.39,5.41.82-.09,1.57-.17,2.28-.24.7-.07,1.35-.1,1.94-.1,1.31,0,2.36.14,3.13.41Z"/>
  <path d="M319.04,42.81c0,1.18-.2,2.48-.61,3.91-.41,1.43-.98,2.78-1.7,4.05-.73,1.27-1.55,2.32-2.48,3.16-.93.84-1.92,1.26-2.96,1.26-.95,0-1.69-.35-2.21-1.05-.52-.7-.78-1.71-.78-3.03,0-.86.14-1.94.41-3.23.27-1.29.68-2.56,1.22-3.81.54-1.25,1.22-2.37,2.04-3.37.82-1,1.77-1.63,2.86-1.9.14-.27.38-.41.75-.41,1.04,0,1.88.39,2.52,1.16.63.77.95,1.86.95,3.26ZM311.29,53.14c.59,0,1.22-.34,1.9-1.02.68-.68,1.3-1.53,1.87-2.55.57-1.02,1.03-2.13,1.39-3.33.36-1.2.54-2.35.54-3.43,0-1.36-.29-2.11-.88-2.24-.18.09-.36.14-.54.14-.54,0-1.12.36-1.73,1.09-.61.73-1.18,1.62-1.7,2.69-.52,1.07-.95,2.2-1.29,3.4-.34,1.2-.51,2.28-.51,3.23,0,.59.06,1.08.17,1.46.11.39.37.58.78.58Z"/>
  <path d="M357.53,50.35c.18-.18.43-.27.75-.27.68,0,1.02.34,1.02,1.02,0,.36-.19.7-.58,1.02-.39.32-.86.59-1.43.82-.57.23-1.19.4-1.87.51-.68.11-1.32.17-1.9.17-2.81,0-4.98-.75-6.49-2.24-1.52-1.5-2.28-3.4-2.28-5.71,0-1.77.2-3.23.61-4.39.41-1.16.92-2.1,1.53-2.82.61-.72,1.28-1.23,2.01-1.53.72-.29,1.38-.44,1.97-.44.77,0,1.48.28,2.14.85.66.57.99,1.46.99,2.69,0,1.72-.6,3.02-1.8,3.88-1.2.86-2.6,1.36-4.18,1.5h-.54c-.23,0-.45-.02-.68-.07,0,1.36.24,2.45.71,3.26.48.82,1.05,1.45,1.73,1.9.68.45,1.41.75,2.18.88.77.14,1.47.2,2.11.2.86,0,1.65-.11,2.38-.34.72-.23,1.27-.52,1.63-.88ZM348.28,40.15c-.23.32-.47.73-.71,1.22-.25.5-.44,1.13-.58,1.9.14.05.36.07.68.07.41,0,.86-.04,1.36-.14.5-.09.96-.26,1.39-.51.43-.25.79-.59,1.09-1.02.29-.43.44-.99.44-1.67,0-.36-.07-.7-.2-1.02-.14-.32-.43-.48-.88-.48-.36,0-.77.11-1.22.34-.45.23-.91.66-1.36,1.29Z"/>
  <path d="M377.45,55.45c-.09,0-.15-.01-.17-.03-.02-.02-.08-.03-.17-.03-.86-.82-1.63-1.6-2.31-2.35-.68-.75-1.43-1.65-2.24-2.72-.82-1.06-1.63-2.28-2.45-3.64-1.81,1.72-3.32,3.17-4.52,4.35-1.2,1.18-2.19,2.14-2.96,2.89-.77.75-1.34,1.29-1.7,1.63-.36.34-.59.51-.68.51-.68,0-1.02-.36-1.02-1.09,0-.14.29-.53.88-1.19.59-.66,1.36-1.46,2.31-2.41.95-.95,2.01-2.01,3.16-3.16,1.16-1.16,2.3-2.28,3.43-3.37-.77-1.4-1.5-2.93-2.18-4.59-.68-1.65-1.02-3.14-1.02-4.45,0-.68.34-1.02,1.02-1.02.32,0,.57.23.75.68.18.45.38,1.08.61,1.87.23.79.52,1.71.88,2.75.36,1.04.86,2.15,1.5,3.33.86-.82,1.86-1.74,2.99-2.79,1.13-1.04,2.21-2.02,3.23-2.92,1.02-.91,1.92-1.68,2.69-2.31.77-.63,1.22-.95,1.36-.95.27,0,.51.11.71.34.2.23.31.48.31.75,0,.14-.19.39-.58.75-.39.36-.99.92-1.8,1.67-.82.75-1.87,1.71-3.16,2.89-1.29,1.18-2.87,2.65-4.73,4.42,1.22,2.04,2.27,3.62,3.13,4.73.86,1.11,1.56,1.96,2.11,2.55.54.59.95,1,1.22,1.22.27.23.41.45.41.68,0,.27-.1.51-.31.71-.2.2-.44.31-.71.31Z"/>
  <path d="M390.44,36.62c.95,0,1.73.27,2.35.82.61.54,1.1,1.2,1.46,1.97.36.77.61,1.61.75,2.52.14.91.2,1.7.2,2.38,0,1.13-.11,2.24-.34,3.33-.23,1.09-.56,2.06-.99,2.92-.43.86-.96,1.56-1.6,2.11-.64.54-1.36.82-2.18.82-1.36,0-2.37-.53-3.03-1.6-.66-1.06-.99-2.39-.99-3.98,0-.36.01-.7.03-1.02.02-.32.06-.63.1-.95-.59,1.54-1.16,3.31-1.7,5.3-.54,2-1.08,4.06-1.6,6.19-.52,2.13-1,4.25-1.43,6.36-.43,2.11-.79,4.05-1.09,5.81-.29,1.77-.53,3.27-.71,4.52-.18,1.25-.27,2.1-.27,2.55,0,.18.01.31.03.37.02.07.03.15.03.24,0,.27-.09.52-.27.75-.18.23-.43.34-.75.34-.41,0-.69-.16-.85-.48-.16-.32-.24-.68-.24-1.09,0-.68.08-1.64.24-2.89.16-1.25.37-2.66.65-4.25.27-1.59.59-3.31.95-5.17.36-1.86.77-3.74,1.22-5.64.45-2.04,1.03-4.34,1.73-6.9.7-2.56,1.47-4.97,2.31-7.24.84-2.27,1.77-4.18,2.79-5.75,1.02-1.56,2.07-2.35,3.16-2.35ZM392.14,49.47c.32-.72.57-1.53.75-2.41.18-.88.27-1.8.27-2.75,0-.68-.06-1.36-.17-2.04-.11-.68-.28-1.29-.51-1.84-.23-.54-.51-.97-.85-1.29-.34-.32-.74-.48-1.19-.48-.14,0-.27.06-.41.17-.14.11-.41.37-.82.78.59.23.88.59.88,1.09,0,.05-.1.23-.31.54-.2.32-.43.78-.68,1.39-.25.61-.48,1.35-.68,2.21-.2.86-.31,1.84-.31,2.92,0,1.59.21,2.6.65,3.03.43.43.87.65,1.33.65.5,0,.92-.24,1.26-.71.34-.48.6-.89.78-1.26Z"/>
  <path d="M401.86,27.51c-.41,2.31-.87,4.91-1.39,7.79-.52,2.88-1,5.63-1.43,8.26-.43,2.63-.81,4.9-1.12,6.8-.32,1.9-.48,3.04-.48,3.4,0,.32-.1.57-.31.75-.2.18-.44.27-.71.27s-.51-.09-.71-.27c-.2-.18-.31-.43-.31-.75,0-.36.11-1.31.34-2.86.23-1.54.54-3.5.95-5.88.41-2.38.88-5.1,1.43-8.16.54-3.06,1.11-6.31,1.7-9.76.45-2.54.8-4.58,1.05-6.12.25-1.54.45-2.72.61-3.54.16-.82.33-1.35.51-1.6.18-.25.45-.37.82-.37.27.05.5.18.68.41.18.23.27.48.27.75l-1.9,10.88Z"/>
  <path d="M411.86,42.81c0,1.18-.2,2.48-.61,3.91-.41,1.43-.98,2.78-1.7,4.05-.73,1.27-1.55,2.32-2.48,3.16-.93.84-1.92,1.26-2.96,1.26-.95,0-1.69-.35-2.21-1.05-.52-.7-.78-1.71-.78-3.03,0-.86.14-1.94.41-3.23.27-1.29.68-2.56,1.22-3.81.54-1.25,1.22-2.37,2.04-3.37.82-1,1.77-1.63,2.86-1.9.14-.27.38-.41.75-.41,1.04,0,1.88.39,2.52,1.16.63.77.95,1.86.95,3.26ZM404.1,53.14c.59,0,1.22-.34,1.9-1.02.68-.68,1.3-1.53,1.87-2.55.57-1.02,1.03-2.13,1.39-3.33.36-1.2.54-2.35.54-3.43,0-1.36-.29-2.11-.88-2.24-.18.09-.36.14-.54.14-.54,0-1.12.36-1.73,1.09-.61.73-1.18,1.62-1.7,2.69-.52,1.07-.95,2.2-1.29,3.4-.34,1.2-.51,2.28-.51,3.23,0,.59.06,1.08.17,1.46.11.39.37.58.78.58Z"/>
  <path d="M414.03,55.25c-.77,0-1.16-.5-1.16-1.5,0-.41.11-1.23.34-2.48.23-1.25.59-2.73,1.09-4.45.09-.32.25-.93.48-1.84.23-.91.51-1.84.85-2.79s.69-1.79,1.05-2.52c.36-.72.72-1.09,1.09-1.09.32,0,.58.1.78.31.2.2.31.44.31.71-.18.41-.41,1.02-.68,1.84-.23.68-.52,1.58-.88,2.69-.36,1.11-.79,2.53-1.29,4.25.59-1.04,1.35-2.27,2.28-3.67.93-1.4,1.95-2.75,3.06-4.05,1.11-1.29,2.27-2.38,3.47-3.26,1.2-.88,2.35-1.33,3.43-1.33.63,0,1.18.15,1.63.44.45.3.68.65.68,1.05,0,.73-.32,1.09-.95,1.09-.36,0-.61-.09-.75-.27-.14-.18-.34-.27-.61-.27-.23,0-.52.07-.88.2-.36.14-.82.41-1.36.82-2.09,1.59-3.8,3.32-5.13,5.2-1.34,1.88-2.43,3.63-3.26,5.24-.84,1.61-1.53,2.96-2.07,4.05s-1.04,1.63-1.5,1.63Z"/>
  <path d="M442.25,50.35c.18-.18.43-.27.75-.27.68,0,1.02.34,1.02,1.02,0,.36-.19.7-.58,1.02-.39.32-.86.59-1.43.82-.57.23-1.19.4-1.87.51-.68.11-1.32.17-1.9.17-2.81,0-4.98-.75-6.49-2.24-1.52-1.5-2.28-3.4-2.28-5.71,0-1.77.2-3.23.61-4.39.41-1.16.92-2.1,1.53-2.82.61-.72,1.28-1.23,2.01-1.53.72-.29,1.38-.44,1.97-.44.77,0,1.48.28,2.14.85.66.57.99,1.46.99,2.69,0,1.72-.6,3.02-1.8,3.88-1.2.86-2.6,1.36-4.18,1.5h-.54c-.23,0-.45-.02-.68-.07,0,1.36.24,2.45.71,3.26.48.82,1.05,1.45,1.73,1.9.68.45,1.41.75,2.18.88.77.14,1.47.2,2.11.2.86,0,1.65-.11,2.38-.34.72-.23,1.27-.52,1.63-.88ZM433.01,40.15c-.23.32-.47.73-.71,1.22-.25.5-.44,1.13-.58,1.9.14.05.36.07.68.07.41,0,.86-.04,1.36-.14.5-.09.96-.26,1.39-.51.43-.25.79-.59,1.09-1.02.29-.43.44-.99.44-1.67,0-.36-.07-.7-.2-1.02-.14-.32-.43-.48-.88-.48-.36,0-.77.11-1.22.34-.45.23-.91.66-1.36,1.29Z"/>
  <path d="M486.31,33.01c.41.18.61.52.61,1.02,0,.32-.1.56-.31.71-.2.16-.42.24-.65.24s-.5-.06-.82-.17c-.32-.11-.97-.17-1.97-.17-.54,0-1.21.07-2.01.2-.79.14-1.71.2-2.75.2-1.59,6.3-2.94,11.2-4.05,14.69-1.11,3.49-2.12,5.24-3.03,5.24-.32,0-.58-.1-.78-.31s-.31-.44-.31-.71.01-.4.03-.37c.02.02.08-.03.17-.17.09-.14.26-.45.51-.95.25-.5.59-1.39,1.02-2.69.43-1.29,1-3.08,1.7-5.37.7-2.29,1.55-5.29,2.55-9.01-1.86.32-3.34.6-4.45.85-1.11.25-1.64.35-1.6.31-.68,0-1.02-.36-1.02-1.09,0-.23-.01-.41-.03-.54-.02-.14.17-.26.58-.37.41-.11,1.14-.27,2.21-.48,1.06-.2,2.69-.49,4.86-.85.86-3.22,1.54-5.89,2.04-8.02.5-2.13.91-3.83,1.22-5.1.32-1.27.6-2.16.85-2.69.25-.52.55-.78.92-.78.27,0,.49.11.65.34.16.23.24.45.24.68v.2c-.05.18-.17.73-.37,1.63-.2.91-.48,2.04-.82,3.4s-.73,2.91-1.16,4.66c-.43,1.75-.9,3.55-1.39,5.41.82-.09,1.57-.17,2.28-.24.7-.07,1.35-.1,1.94-.1,1.31,0,2.36.14,3.13.41Z"/>
  <path d="M495.56,40.9c.95,0,1.65.42,2.11,1.26.45.84.68,1.98.68,3.43,0,.68-.07,1.69-.2,3.03-.14,1.34-.32,2.68-.54,4.01-.23,1.34-.5,2.52-.82,3.54s-.66,1.53-1.02,1.53c-.32,0-.57-.1-.75-.31-.18-.2-.27-.44-.27-.71v-.14c.14-.59.28-1.33.44-2.21.16-.88.33-1.82.51-2.82.18-1,.33-2.01.44-3.03.11-1.02.17-1.94.17-2.75,0-.68-.03-1.21-.1-1.6-.07-.38-.15-.67-.24-.85-.09-.18-.23-.29-.41-.34-.91,0-1.78.39-2.62,1.16-.84.77-1.62,1.61-2.35,2.52-.73.91-1.37,1.75-1.94,2.52-.57.77-1.05,1.16-1.46,1.16-.32,0-.58-.11-.78-.34-.2-.23-.31-.5-.31-.82,0-.23.19-1.09.58-2.58.38-1.5.85-3.33,1.39-5.51.54-2.18,1.14-4.56,1.8-7.14.66-2.58,1.26-5.08,1.8-7.48.5-2.27.83-4.02.99-5.27.16-1.25.24-2.19.24-2.82,0-.5-.03-.83-.1-.99-.07-.16-.1-.33-.1-.51,0-.23.09-.45.27-.68.18-.23.43-.34.75-.34.36,0,.66.18.88.54.23.36.34,1.04.34,2.04,0,.77-.09,1.8-.27,3.09-.18,1.29-.52,3.07-1.02,5.34-.68,3.22-1.47,6.49-2.38,9.83-.91,3.33-1.68,6.29-2.31,8.87.86-1.09,1.85-2.13,2.96-3.13,1.11-1,2.32-1.5,3.64-1.5Z"/>
  <path d="M512.83,50.35c.18-.18.43-.27.75-.27.68,0,1.02.34,1.02,1.02,0,.36-.19.7-.58,1.02-.39.32-.86.59-1.43.82-.57.23-1.19.4-1.87.51-.68.11-1.32.17-1.9.17-2.81,0-4.98-.75-6.49-2.24-1.52-1.5-2.28-3.4-2.28-5.71,0-1.77.2-3.23.61-4.39.41-1.16.92-2.1,1.53-2.82.61-.72,1.28-1.23,2.01-1.53.72-.29,1.38-.44,1.97-.44.77,0,1.48.28,2.14.85.66.57.99,1.46.99,2.69,0,1.72-.6,3.02-1.8,3.88-1.2.86-2.6,1.36-4.18,1.5h-.54c-.23,0-.45-.02-.68-.07,0,1.36.24,2.45.71,3.26.48.82,1.05,1.45,1.73,1.9.68.45,1.41.75,2.18.88.77.14,1.47.2,2.11.2.86,0,1.65-.11,2.38-.34.72-.23,1.27-.52,1.63-.88ZM503.58,40.15c-.23.32-.47.73-.71,1.22-.25.5-.44,1.13-.58,1.9.14.05.36.07.68.07.41,0,.86-.04,1.36-.14.5-.09.96-.26,1.39-.51.43-.25.79-.59,1.09-1.02.29-.43.44-.99.44-1.67,0-.36-.07-.7-.2-1.02-.14-.32-.43-.48-.88-.48-.36,0-.77.11-1.22.34-.45.23-.91.66-1.36,1.29Z"/>
  <path d="M544.01,34.44c-.11.82-.24,1.78-.37,2.89-.14,1.11-.28,2.29-.44,3.54-.16,1.25-.29,2.41-.41,3.5-.11,1.09-.22,2.03-.31,2.82-.09.79-.14,1.26-.14,1.39,1-1,1.77-1.86,2.31-2.58.54-.72,1-1.33,1.36-1.8.36-.48.68-.83.95-1.05.27-.23.63-.34,1.09-.34.72,0,1.21.5,1.46,1.5.25,1,.44,2.1.58,3.3.14,1.2.29,2.3.48,3.3.18,1,.57,1.5,1.16,1.5.54-.27,1.06-.78,1.56-1.53.5-.75,1.12-1.91,1.87-3.5.75-1.59,1.6-3.85,2.55-6.8.86-2.67,1.53-4.93,2.01-6.77.48-1.84.85-3.32,1.12-4.45.27-1.13.51-1.95.71-2.45.2-.5.46-.75.78-.75s.58.11.78.34c.2.23.31.48.31.75,0,.23-.1.77-.31,1.63-.2.86-.48,1.94-.82,3.23s-.74,2.72-1.19,4.28-.95,3.14-1.5,4.73c-1.54,4.58-2.94,7.95-4.18,10.1-1.25,2.15-2.48,3.23-3.71,3.23-.77,0-1.39-.32-1.87-.95-.48-.63-.86-1.42-1.16-2.35-.3-.93-.51-1.91-.65-2.96-.14-1.04-.25-1.99-.34-2.86-.95.95-1.72,1.81-2.31,2.58-.59.77-1.09,1.41-1.5,1.9-.41.5-.77.88-1.09,1.16s-.7.41-1.16.41c-.14,0-.28-.01-.44-.03-.16-.02-.32-.11-.48-.27-.16-.16-.28-.42-.37-.78-.09-.36-.14-.91-.14-1.63,0-.86.04-1.88.14-3.06.09-1.18.21-2.4.37-3.67.16-1.27.34-2.53.54-3.77.2-1.25.42-2.36.65-3.33.23-.97.45-1.77.68-2.38.23-.61.45-.92.68-.92.36,0,.62.11.78.34.16.23.24.45.24.68v.27l-.07.07c-.05.23-.13.75-.24,1.56Z"/>
  <path d="M570.49,42.81c0,1.18-.2,2.48-.61,3.91-.41,1.43-.98,2.78-1.7,4.05-.73,1.27-1.55,2.32-2.48,3.16-.93.84-1.92,1.26-2.96,1.26-.95,0-1.69-.35-2.21-1.05-.52-.7-.78-1.71-.78-3.03,0-.86.14-1.94.41-3.23.27-1.29.68-2.56,1.22-3.81.54-1.25,1.22-2.37,2.04-3.37.82-1,1.77-1.63,2.86-1.9.14-.27.38-.41.75-.41,1.04,0,1.88.39,2.52,1.16.63.77.95,1.86.95,3.26ZM562.74,53.14c.59,0,1.22-.34,1.9-1.02.68-.68,1.3-1.53,1.87-2.55.57-1.02,1.03-2.13,1.39-3.33.36-1.2.54-2.35.54-3.43,0-1.36-.29-2.11-.88-2.24-.18.09-.36.14-.54.14-.54,0-1.12.36-1.73,1.09-.61.73-1.18,1.62-1.7,2.69-.52,1.07-.95,2.2-1.29,3.4-.34,1.2-.51,2.28-.51,3.23,0,.59.06,1.08.17,1.46.11.39.37.58.78.58Z"/>
  <path d="M572.67,55.25c-.77,0-1.16-.5-1.16-1.5,0-.41.11-1.23.34-2.48.23-1.25.59-2.73,1.09-4.45.09-.32.25-.93.48-1.84.23-.91.51-1.84.85-2.79s.69-1.79,1.05-2.52c.36-.72.72-1.09,1.09-1.09.32,0,.58.1.78.31.2.2.31.44.31.71-.18.41-.41,1.02-.68,1.84-.23.68-.52,1.58-.88,2.69-.36,1.11-.79,2.53-1.29,4.25.59-1.04,1.35-2.27,2.28-3.67.93-1.4,1.95-2.75,3.06-4.05,1.11-1.29,2.27-2.38,3.47-3.26,1.2-.88,2.35-1.33,3.43-1.33.63,0,1.18.15,1.63.44.45.3.68.65.68,1.05,0,.73-.32,1.09-.95,1.09-.36,0-.61-.09-.75-.27-.14-.18-.34-.27-.61-.27-.23,0-.52.07-.88.2-.36.14-.82.41-1.36.82-2.09,1.59-3.8,3.32-5.13,5.2-1.34,1.88-2.43,3.63-3.26,5.24-.84,1.61-1.53,2.96-2.07,4.05s-1.04,1.63-1.5,1.63Z"/>
  <path d="M596.88,47.23c.09.14.28.36.58.68.29.32.6.67.92,1.05.32.39.6.78.85,1.19.25.41.37.77.37,1.09,0,.54-.25.88-.75,1.02-.27,0-.52-.03-.75-.1-.23-.07-.39-.28-.48-.65-.05-.27-.31-.68-.78-1.22-.48-.54-1.01-1.09-1.6-1.63-.59-.54-1.15-1.03-1.67-1.46-.52-.43-.87-.67-1.05-.71-.23,0-.45.14-.68.41s-.46.6-.71.99c-.25.39-.46.78-.65,1.19-.18.41-.3.73-.34.95-.14,1.13-.22,2.09-.24,2.86-.02.77-.37,1.16-1.05,1.16-.27,0-.51-.09-.71-.27-.2-.18-.31-.43-.31-.75,0-1.13.16-2.75.48-4.86.32-2.11.72-4.42,1.22-6.94.5-2.52,1.05-5.13,1.67-7.85.61-2.72,1.21-5.3,1.8-7.75.59-2.45,1.11-4.61,1.56-6.49.45-1.88.79-3.25,1.02-4.11v-.07c.14-.5.45-.75.95-.75.32,0,.57.1.75.31.18.2.27.44.27.71v.27c-.09.41-.27,1.17-.54,2.28-.27,1.11-.6,2.46-.99,4.05-.39,1.59-.82,3.35-1.29,5.3-.48,1.95-.94,3.94-1.39,5.98-.45,2.04-.9,4.09-1.33,6.15-.43,2.06-.81,3.98-1.12,5.75.45-.32.97-.48,1.56-.48.18,0,.34.01.48.03.14.02.29.06.48.1-.18-.68-.27-1.43-.27-2.24,0-2.04.71-3.9,2.14-5.58,1.43-1.68,3.71-3.24,6.83-4.69.18-.09.32-.14.41-.14.23,0,.45.09.68.27.23.18.34.43.34.75,0,.41-.18.73-.54.95-2.81,1.32-4.82,2.66-6.02,4.05-1.2,1.38-1.8,2.89-1.8,4.52,0,1.04.18,1.98.54,2.82.36.84.75,1.46,1.16,1.87Z"/>
  <path d="M638.08,45.93c1.13.36,2.03.88,2.69,1.56.66.68.99,1.47.99,2.38,0,1.36-.32,2.55-.95,3.57-.64,1.02-1.41,1.88-2.31,2.58-.91.7-1.87,1.22-2.89,1.56-1.02.34-1.92.51-2.69.51s-1.53-.1-2.28-.31-1.42-.52-2.01-.95c-.59-.43-1.09-.97-1.5-1.63-.41-.66-.64-1.44-.68-2.35,0-.27.07-.51.2-.71.14-.2.38-.33.75-.37.32,0,.57.11.75.34.18.23.32.5.41.82.09.32.18.65.27.99.09.34.23.6.41.78.5-2.08.95-4.76,1.36-8.02.41-3.26.82-6.64,1.22-10.13.5-4.35.95-7.91,1.36-10.68.41-2.76.78-4.93,1.12-6.49s.67-2.64.99-3.23c.32-.59.68-.88,1.09-.88.27,0,.52.09.75.27.23.18.34.43.34.75,0,.27-.11.52-.34.75-.09.05-.18.16-.27.34-.09.18-.19.51-.31.99-.11.48-.26,1.13-.44,1.97-.18.84-.36,1.94-.54,3.3-.27,1.59-.52,3.3-.75,5.13-.23,1.84-.45,3.74-.68,5.71-.23,1.97-.45,3.94-.68,5.92-.23,1.97-.48,3.87-.75,5.68.91-.32,1.88-.48,2.92-.48.72,0,1.54.11,2.45.34ZM637.19,54.5c.59-.41,1.16-.99,1.7-1.73.54-.75.82-1.69.82-2.82,0-.41-.15-.75-.44-1.02s-.65-.51-1.05-.71-.85-.35-1.33-.44c-.48-.09-.9-.14-1.26-.14-.64,0-1.25.1-1.84.31-.59.2-1.07.53-1.43.99-.23,1.32-.43,2.54-.61,3.67-.18,1.13-.39,2.13-.61,2.99,0,.14-.02.23-.07.27.54.18,1.16.27,1.84.27.5,0,1.14-.12,1.94-.37.79-.25,1.57-.67,2.35-1.26Z"/>
  <path d="M655.42,50.35c.18-.18.43-.27.75-.27.68,0,1.02.34,1.02,1.02,0,.36-.19.7-.58,1.02-.39.32-.86.59-1.43.82-.57.23-1.19.4-1.87.51-.68.11-1.32.17-1.9.17-2.81,0-4.98-.75-6.49-2.24-1.52-1.5-2.28-3.4-2.28-5.71,0-1.77.2-3.23.61-4.39.41-1.16.92-2.1,1.53-2.82.61-.72,1.28-1.23,2.01-1.53.72-.29,1.38-.44,1.97-.44.77,0,1.48.28,2.14.85.66.57.99,1.46.99,2.69,0,1.72-.6,3.02-1.8,3.88-1.2.86-2.6,1.36-4.18,1.5h-.54c-.23,0-.45-.02-.68-.07,0,1.36.24,2.45.71,3.26.48.82,1.05,1.45,1.73,1.9.68.45,1.41.75,2.18.88.77.14,1.47.2,2.11.2.86,0,1.65-.11,2.38-.34.72-.23,1.27-.52,1.63-.88ZM646.17,40.15c-.23.32-.47.73-.71,1.22-.25.5-.44,1.13-.58,1.9.14.05.36.07.68.07.41,0,.86-.04,1.36-.14.5-.09.96-.26,1.39-.51.43-.25.79-.59,1.09-1.02.29-.43.44-.99.44-1.67,0-.36-.07-.7-.2-1.02-.14-.32-.43-.48-.88-.48-.36,0-.77.11-1.22.34-.45.23-.91.66-1.36,1.29Z"/>
  <path d="M667.12,40.9c.95,0,1.65.42,2.11,1.26.45.84.68,1.98.68,3.43,0,.68-.07,1.69-.2,3.03-.14,1.34-.32,2.68-.54,4.01-.23,1.34-.5,2.52-.82,3.54s-.66,1.53-1.02,1.53c-.32,0-.57-.1-.75-.31-.18-.2-.27-.44-.27-.71v-.14c.14-.59.28-1.33.44-2.21.16-.88.33-1.82.51-2.82.18-1,.33-2.01.44-3.03.11-1.02.17-1.94.17-2.75,0-.68-.03-1.21-.1-1.6-.07-.38-.15-.67-.24-.85-.09-.18-.23-.29-.41-.34-.91,0-1.78.39-2.62,1.16-.84.77-1.62,1.61-2.35,2.52-.73.91-1.37,1.75-1.94,2.52-.57.77-1.05,1.16-1.46,1.16-.32,0-.58-.11-.78-.34-.2-.23-.31-.5-.31-.82,0-.23.19-1.09.58-2.58.38-1.5.85-3.33,1.39-5.51.54-2.18,1.14-4.56,1.8-7.14.66-2.58,1.26-5.08,1.8-7.48.5-2.27.83-4.02.99-5.27.16-1.25.24-2.19.24-2.82,0-.5-.03-.83-.1-.99-.07-.16-.1-.33-.1-.51,0-.23.09-.45.27-.68.18-.23.43-.34.75-.34.36,0,.66.18.88.54.23.36.34,1.04.34,2.04,0,.77-.09,1.8-.27,3.09-.18,1.29-.52,3.07-1.02,5.34-.68,3.22-1.47,6.49-2.38,9.83-.91,3.33-1.68,6.29-2.31,8.87.86-1.09,1.85-2.13,2.96-3.13,1.11-1,2.32-1.5,3.64-1.5Z"/>
  <path d="M679.9,36.55c-.05.27-.17.51-.37.71s-.51.44-.92.71c-.14.09-.41.27-.82.54s-.87.56-1.39.85c-.52.3-1.1.57-1.73.82-.63.25-1.27.42-1.9.51-.32,0-.6-.08-.85-.24-.25-.16-.37-.42-.37-.78,0-.18.29-.51.88-.99.59-.48,1.27-.96,2.04-1.46.77-.5,1.54-.94,2.31-1.33.77-.38,1.36-.58,1.77-.58.36,0,.68.1.95.31s.41.47.41.78v.14ZM673.51,45.73c.68,0,1.02.34,1.02,1.02v.14s-.02.23-.07.54c-.05.36-.09.92-.14,1.67-.05.75-.1,1.53-.17,2.35s-.12,1.6-.17,2.35c-.05.75-.07,1.28-.07,1.6,0,.41.02.71.07.92.04.2.08.34.1.41.02.07.06.14.1.2.04.07.07.17.07.31,0,.32-.1.57-.31.75-.2.18-.44.27-.71.27-.09,0-.22.01-.37.03-.16.02-.31-.05-.44-.2-.14-.16-.26-.47-.37-.92s-.17-1.13-.17-2.04c0-1.31.02-2.54.07-3.67.04-1.13.14-2.13.27-2.99.14-.86.31-1.53.51-2.01s.46-.71.78-.71Z"/>
  <path d="M691.12,41.58c1.31,0,1.97,1,1.97,2.99,0,.68-.13,1.71-.37,3.09-.25,1.38-.57,2.78-.95,4.18-.39,1.41-.84,2.64-1.36,3.71-.52,1.07-1.05,1.6-1.6,1.6-.27,0-.52-.09-.75-.27-.23-.18-.34-.41-.34-.68s.11-.52.34-.75c.09-.14.31-.67.65-1.6.34-.93.68-1.98,1.02-3.16.34-1.18.65-2.35.92-3.5.27-1.16.41-2.03.41-2.62,0-.5-.02-.82-.07-.95-.45.05-1.04.31-1.77.78-.73.48-1.63,1.44-2.72,2.89-.77.95-1.45,1.96-2.04,3.03-.59,1.07-1.15,2.04-1.67,2.92-.52.88-.99,1.61-1.39,2.18-.41.57-.77.85-1.09.85-.36,0-.64-.11-.82-.34-.18-.23-.27-.48-.27-.75,0,.05.08-.18.24-.68.16-.5.33-1.19.51-2.07.18-.88.35-1.95.51-3.2.16-1.25.24-2.62.24-4.11,0-.72-.08-1.46-.24-2.21-.16-.75-.24-1.48-.24-2.21,0-.27.1-.51.31-.71s.46-.31.78-.31c.36,0,.63.22.82.65.18.43.32.93.41,1.5.09.57.15,1.16.17,1.77.02.61.03,1.12.03,1.53,0,.82-.03,1.61-.1,2.38-.07.77-.15,1.5-.24,2.18,3.17-5.39,6.07-8.09,8.7-8.09Z"/>
  <path d="M706.56,42.6c-.27,1.32-.48,2.63-.61,3.94-.14,1.32-.2,2.54-.2,3.67,0,1.5.17,2.79.51,3.88s.51,1.81.51,2.18c0,.32-.1.57-.31.75-.2.18-.44.27-.71.27-.35,0-.66-.21-.92-.65-.26-.43-.48-.99-.66-1.67-.17-.68-.29-1.43-.36-2.24-.07-.82-.1-1.61-.1-2.38,0-.72.03-1.46.1-2.21.07-.75.15-1.51.24-2.28-1.48,2.31-2.88,4-4.18,5.07-1.3,1.07-2.47,1.6-3.5,1.6s-1.68-.28-1.96-.85c-.28-.57-.42-1.12-.42-1.67,0-.59.1-1.23.31-1.94.2-.7.48-1.42.82-2.14.34-.72.71-1.44,1.12-2.14.41-.7.82-1.33,1.22-1.87.27-.41.65-.91,1.12-1.5.48-.59,1-1.16,1.56-1.7.57-.54,1.18-1.02,1.84-1.43.66-.41,1.3-.61,1.94-.61.74,0,1.35.18,1.84.54.63-2.27,1.37-4.57,2.21-6.9.84-2.33,1.76-4.66,2.75-6.97,1.59-3.63,2.89-6.16,3.91-7.62,1.02-1.45,1.82-2.18,2.41-2.18.41,0,.77.15,1.09.44.32.3.48.76.48,1.39,0,.77-.42,2.28-1.26,4.52s-2.19,5.25-4.05,9.01c-1.45,2.86-2.6,5.11-3.43,6.77-.84,1.66-1.5,2.94-1.97,3.84-.48.91-.8,1.55-.99,1.94-.18.39-.3.76-.34,1.12ZM701.95,45.32c.99-1.36,1.74-2.54,2.26-3.54.52-1,.85-1.74.98-2.24-.05-.14-.16-.31-.34-.51-.18-.2-.5-.31-.95-.31-.58,0-1.33.47-2.22,1.39-.9.93-1.77,2.01-2.6,3.23-.83,1.22-1.55,2.47-2.16,3.74-.61,1.27-.91,2.24-.91,2.92,0,.23.04.39.14.48.09,0,.27-.01.54-.03.27-.02.64-.18,1.11-.48.47-.29,1.04-.8,1.72-1.53.67-.72,1.48-1.77,2.43-3.13ZM712.33,24.92c-.5,1.09-.95,2.19-1.36,3.3-.41,1.11-.82,2.21-1.22,3.3,1.81-3.4,3.29-6.41,4.42-9.04,1.13-2.63,1.86-4.51,2.18-5.64-.45.73-1.02,1.75-1.7,3.06-.68,1.32-1.45,2.99-2.31,5.03Z"/>
  <path d="M754.29,33.01c.41.18.61.52.61,1.02,0,.32-.1.56-.31.71-.2.16-.42.24-.65.24s-.5-.06-.82-.17c-.32-.11-.97-.17-1.97-.17-.54,0-1.21.07-2.01.2-.79.14-1.71.2-2.75.2-1.59,6.3-2.94,11.2-4.05,14.69-1.11,3.49-2.12,5.24-3.03,5.24-.32,0-.58-.1-.78-.31s-.31-.44-.31-.71.01-.4.03-.37c.02.02.08-.03.17-.17.09-.14.26-.45.51-.95.25-.5.59-1.39,1.02-2.69.43-1.29,1-3.08,1.7-5.37.7-2.29,1.55-5.29,2.55-9.01-1.86.32-3.34.6-4.45.85-1.11.25-1.64.35-1.6.31-.68,0-1.02-.36-1.02-1.09,0-.23-.01-.41-.03-.54-.02-.14.17-.26.58-.37.41-.11,1.14-.27,2.21-.48,1.06-.2,2.69-.49,4.86-.85.86-3.22,1.54-5.89,2.04-8.02.5-2.13.91-3.83,1.22-5.1.32-1.27.6-2.16.85-2.69.25-.52.55-.78.92-.78.27,0,.49.11.65.34.16.23.24.45.24.68v.2c-.05.18-.17.73-.37,1.63-.2.91-.48,2.04-.82,3.4s-.73,2.91-1.16,4.66c-.43,1.75-.9,3.55-1.39,5.41.82-.09,1.57-.17,2.28-.24.7-.07,1.35-.1,1.94-.1,1.31,0,2.36.14,3.13.41Z"/>
  <path d="M763.53,40.9c.95,0,1.65.42,2.11,1.26.45.84.68,1.98.68,3.43,0,.68-.07,1.69-.2,3.03-.14,1.34-.32,2.68-.54,4.01-.23,1.34-.5,2.52-.82,3.54s-.66,1.53-1.02,1.53c-.32,0-.57-.1-.75-.31-.18-.2-.27-.44-.27-.71v-.14c.14-.59.28-1.33.44-2.21.16-.88.33-1.82.51-2.82.18-1,.33-2.01.44-3.03.11-1.02.17-1.94.17-2.75,0-.68-.03-1.21-.1-1.6-.07-.38-.15-.67-.24-.85-.09-.18-.23-.29-.41-.34-.91,0-1.78.39-2.62,1.16-.84.77-1.62,1.61-2.35,2.52-.73.91-1.37,1.75-1.94,2.52-.57.77-1.05,1.16-1.46,1.16-.32,0-.58-.11-.78-.34-.2-.23-.31-.5-.31-.82,0-.23.19-1.09.58-2.58.38-1.5.85-3.33,1.39-5.51.54-2.18,1.14-4.56,1.8-7.14.66-2.58,1.26-5.08,1.8-7.48.5-2.27.83-4.02.99-5.27.16-1.25.24-2.19.24-2.82,0-.5-.03-.83-.1-.99-.07-.16-.1-.33-.1-.51,0-.23.09-.45.27-.68.18-.23.43-.34.75-.34.36,0,.66.18.88.54.23.36.34,1.04.34,2.04,0,.77-.09,1.8-.27,3.09-.18,1.29-.52,3.07-1.02,5.34-.68,3.22-1.47,6.49-2.38,9.83-.91,3.33-1.68,6.29-2.31,8.87.86-1.09,1.85-2.13,2.96-3.13,1.11-1,2.32-1.5,3.64-1.5Z"/>
  <path d="M780.81,50.35c.18-.18.43-.27.75-.27.68,0,1.02.34,1.02,1.02,0,.36-.19.7-.58,1.02-.39.32-.86.59-1.43.82-.57.23-1.19.4-1.87.51-.68.11-1.32.17-1.9.17-2.81,0-4.98-.75-6.49-2.24-1.52-1.5-2.28-3.4-2.28-5.71,0-1.77.2-3.23.61-4.39.41-1.16.92-2.1,1.53-2.82.61-.72,1.28-1.23,2.01-1.53.72-.29,1.38-.44,1.97-.44.77,0,1.48.28,2.14.85.66.57.99,1.46.99,2.69,0,1.72-.6,3.02-1.8,3.88-1.2.86-2.6,1.36-4.18,1.5h-.54c-.23,0-.45-.02-.68-.07,0,1.36.24,2.45.71,3.26.48.82,1.05,1.45,1.73,1.9.68.45,1.41.75,2.18.88.77.14,1.47.2,2.11.2.86,0,1.65-.11,2.38-.34.72-.23,1.27-.52,1.63-.88ZM771.56,40.15c-.23.32-.47.73-.71,1.22-.25.5-.44,1.13-.58,1.9.14.05.36.07.68.07.41,0,.86-.04,1.36-.14.5-.09.96-.26,1.39-.51.43-.25.79-.59,1.09-1.02.29-.43.44-.99.44-1.67,0-.36-.07-.7-.2-1.02-.14-.32-.43-.48-.88-.48-.36,0-.77.11-1.22.34-.45.23-.91.66-1.36,1.29Z"/>
  <path d="M797.81,40.63c.47,0,.84.2,1.12.61.05.09.12.22.21.37.09.16.19.44.28.85.09.41.17.96.25,1.67.07.7.11,1.62.11,2.75,0,1.45-.01,2.78-.04,3.98-.02,1.2-.09,2.26-.21,3.16-.12.91-.28,1.61-.49,2.11-.21.5-.5.75-.88.75-.74,0-1.1-.34-1.1-1.02,0-.09.01-.15.03-.17s.03-.06.03-.1c.04-.14.1-.5.17-1.09.07-.59.14-1.3.2-2.14.07-.84.12-1.74.17-2.72.04-.97.07-1.94.07-2.89,0-.77-.02-1.4-.07-1.9-.05-.5-.09-.93-.14-1.29-.09.18-.19.37-.31.58-.11.2-.24.44-.37.71-1,1.9-1.85,3.59-2.55,5.07-.7,1.47-1.32,2.73-1.84,3.77-.52,1.04-.99,1.84-1.39,2.38s-.82.82-1.22.82c-.36,0-.63-.11-.82-.34-.18-.23-.27-.48-.27-.75.59-1.86,1.13-3.63,1.63-5.3.41-1.4.78-2.81,1.12-4.22.34-1.4.51-2.45.51-3.13,0-.36-.05-.63-.14-.82-.14.05-.45.32-.95.82-.5.5-1.18,1.61-2.04,3.33-.64,1.22-1.18,2.46-1.63,3.71-.45,1.25-.88,2.36-1.29,3.33-.41.98-.78,1.78-1.12,2.41-.34.64-.67.95-.99.95-.73,0-1.09-.41-1.09-1.22,0-.23.02-.5.07-.82.05-.32.14-.72.27-1.22.32-1.27.68-2.75,1.09-4.45.41-1.7.79-3.33,1.16-4.9.36-1.56.67-2.92.92-4.08.25-1.16.37-1.8.37-1.94,0-.18-.03-.33-.1-.44-.07-.11-.1-.24-.1-.37,0-.23.1-.44.31-.65.2-.2.44-.31.71-.31.36,0,.66.15.88.44.23.3.34.78.34,1.46,0,1.04-.36,3.08-1.09,6.12.77-1.45,1.51-2.52,2.21-3.2.7-.68,1.44-1.02,2.21-1.02,1.31,0,1.97.95,1.97,2.86,0,1.04-.16,2.22-.48,3.54-.09.27-.14.48-.14.61,1.22-2.45,2.12-4.17,2.69-5.17.57-1,1.15-1.5,1.74-1.5Z"/>
  <path d="M803.04,58.79c-.5,0-.99-.16-1.46-.48-.48-.32-.71-1.06-.71-2.24,0-1.27.32-2.14.95-2.62s1.2-.71,1.7-.71c.41,0,.83.14,1.26.41s.65.66.65,1.16c0,.23-.07.43-.2.61-.14.18-.3.32-.48.41.18.14.34.33.48.58.14.25.2.58.2.99,0,.5-.24.94-.71,1.33-.48.38-1.03.58-1.67.58Z"/>
</svg>