<?xml version="1.0" encoding="UTF-8"?>
<svg id="Layer_1" data-name="Layer 1" xmlns="http://www.w3.org/2000/svg" viewBox="0 0 81.36 22.3">
  <defs>
    <style>
      .cls-1 {
        fill: #231f20;
      }
    </style>
  </defs>
  <path class="cls-1" d="M1.3.42c-.24.94-.49,1.88-.71,2.82-.1.45-.09.91-.17,1.36s-.25.89-.42,1.32c-.05.13.05.27.17.31.14.04.26-.05.31-.17.12-.29.32-.56.57-.76.19-.15.59-.34.75-.06.07.13.05.28.03.42-.03.18-.06.36-.08.54-.05.38-.07.76-.07,1.14,0,.32.5.32.5,0,0-.5.04-.99.12-1.48.07-.41.07-.87-.32-1.13s-.86-.11-1.19.14c-.36.27-.62.64-.79,1.05l.48.13c.17-.43.34-.86.42-1.32s.06-.91.17-1.36c.21-.95.47-1.88.71-2.82.08-.31-.4-.45-.48-.13h0Z"/>
  <path class="cls-1" d="M2.8,5.64c-.02.17-.04.34-.03.51,0,.16.03.31.05.47s.04.31.05.46c0,.08,0,.15,0,.23,0,.04,0,.08,0,.12,0,.02,0,.03,0,.05,0,.01,0,.02,0,.03,0-.04,0-.04,0-.02-.01.07-.01.13.03.19.03.05.09.1.15.11.06.01.14.01.19-.03.05-.03.11-.09.11-.15.02-.17.03-.34.03-.51,0-.16-.03-.31-.05-.47s-.04-.31-.05-.46c0-.08,0-.15,0-.23,0-.04,0-.08,0-.12,0-.02,0-.03,0-.05,0-.01,0-.02,0-.03,0,.04,0,.04,0,.02.01-.07.01-.13-.03-.19-.03-.05-.09-.1-.15-.11-.06-.01-.14-.01-.19.03-.05.03-.11.09-.11.15h0Z"/>
  <path class="cls-1" d="M3.09,4.61c.32,0,.32-.5,0-.5s-.32.5,0,.5h0Z"/>
  <path class="cls-1" d="M6.48,3.79c-.43-.05-.85.17-1.2.41s-.66.53-.84.91c-.1.2-.16.42-.18.65s.02.46.16.64c.26.34.79.33,1.13.11.19-.12.34-.3.47-.49.06-.09.12-.19.18-.29.03-.05.06-.09.09-.13,0-.01.02-.02.02-.03-.02.03-.01.01,0,0,.02-.02.04-.05.06-.07.09-.1.1-.26,0-.35s-.26-.1-.35,0c-.13.14-.24.31-.34.48-.04.07-.09.14-.13.21-.01.02-.02.03-.04.05-.02.02.01-.01.01-.02,0,0-.01.02-.02.02-.03.03-.05.06-.08.09-.03.03-.06.05-.09.08-.03.03.04-.03-.01,0-.02.01-.04.02-.05.03-.02,0-.03.02-.05.03,0,0-.03.02-.03.02,0,0,.05-.02.02-.01-.04.01-.07.02-.11.03,0,0-.02,0-.02,0,0,0,.05,0,.03,0-.02,0-.04,0-.06,0-.02,0-.03,0-.05,0,0,0-.02,0-.02,0-.04,0,0,0,.01,0-.03-.01-.07-.02-.1-.03-.02,0,.02,0,.02.01,0,0-.02,0-.02,0-.02,0-.03-.02-.05-.03-.03-.02.03.04,0,0,0,0-.04-.04-.02-.02s0,0,0-.01,0-.02-.01-.02c0,0-.01-.03,0,0,.01.03,0,0,0-.01,0-.02-.01-.04-.02-.06,0,0,0-.02,0-.03,0-.03,0,.02,0,.02,0-.02,0-.05,0-.07,0-.02,0-.04,0-.07,0-.04,0-.08,0-.12,0,0,0-.03,0-.03,0,0,0,.05,0,.02,0-.03,0-.05.01-.08,0-.04.02-.08.03-.12,0-.02.01-.04.02-.06,0,0,0-.02.01-.03,0,0,0-.02.01-.03v.02s.03-.09.05-.12c.02-.04.04-.08.07-.11s.05-.07.07-.1c.02-.03-.03.03,0,0,0,0,.01-.01.02-.02.01-.02.03-.03.04-.05.06-.07.12-.13.18-.19.03-.03.06-.06.1-.08.02-.01.03-.02.05-.04.03-.02-.03.02,0,0,.01,0,.02-.02.03-.02.16-.12.33-.23.51-.31,0,0,.02-.01.03-.01-.02,0-.03.01,0,0s.05-.02.08-.03c.05-.02.1-.03.15-.04.02,0,.05-.02.07-.01-.03,0-.03,0,0,0,.01,0,.03,0,.04,0,.05,0,.11,0,.16,0,.13.01.26-.13.25-.25,0-.15-.11-.23-.25-.25h0Z"/>
  <path class="cls-1" d="M6.13,4.06c-.03.64,0,1.26.05,1.9s-.15,1.19-.3,1.77c-.13.51-.29,1.03-.62,1.45-.31.38-.73.66-1.22.71s-1.42.04-1.56-.57c-.07-.31-.55-.18-.48.13.15.66.88.9,1.48.94.65.04,1.25-.09,1.77-.5.47-.37.77-.9.96-1.46.1-.31.18-.62.25-.94.08-.34.19-.68.23-1.03.04-.38-.02-.77-.04-1.15-.02-.42-.02-.84,0-1.26.01-.32-.49-.32-.5,0h0Z"/>
  <path class="cls-1" d="M8.25.32c-.3.92-.35,1.87-.52,2.81s-.44,1.84-.79,2.72c-.11.27.32.43.46.19.15-.27.4-.46.66-.62.19-.12.54-.42.73-.17.09.12.09.28.1.42,0,.19,0,.37-.01.56-.03.38-.12.76-.25,1.12-.11.3.37.43.48.13.17-.47.26-.96.28-1.45.02-.42.02-.94-.34-1.22-.16-.13-.37-.19-.58-.15s-.39.17-.56.27c-.37.22-.72.48-.94.86l.46.19c.35-.88.62-1.79.79-2.72s.21-1.89.52-2.81c.1-.31-.38-.44-.48-.13h0Z"/>
  <path class="cls-1" d="M10.83.24c0,.57-.14,1.13-.27,1.68s-.25,1.08-.37,1.62c-.25,1.11-.5,2.23-.54,3.37-.01.32.49.32.5,0,.05-1.14.3-2.25.55-3.36.12-.54.25-1.08.37-1.62s.25-1.12.26-1.69c0-.32-.5-.32-.5,0h0Z"/>
  <path class="cls-1" d="M11.62,5.7c.02.65,0,1.3-.08,1.95,0,.06.03.14.07.18.04.04.11.08.18.07s.13-.02.18-.07c.05-.05.07-.11.07-.18.08-.65.1-1.3.08-1.95,0-.13-.11-.26-.25-.25s-.25.11-.25.25h0Z"/>
  <path class="cls-1" d="M11.79,4.73l.98-.58c.05-.03.1-.09.11-.15s0-.14-.03-.19-.09-.1-.15-.11-.13,0-.19.03l-.98.58c-.05.03-.1.09-.11.15s0,.14.03.19.09.1.15.11.13,0,.19-.03h0Z"/>
  <g>
    <path class="cls-1" d="M15.05,3.99c-.65-.12-1.28.26-1.57.84-.14.29-.23.61-.27.93-.01.1,0,.21.06.3.07.1.17.16.28.2.17.05.36.05.53,0,.19-.05.36-.16.51-.29.13-.11.23-.25.34-.38.04-.05.07-.1.07-.18,0-.06-.03-.13-.07-.18s-.11-.08-.18-.07c-.06,0-.14.02-.18.07-.11.14-.22.28-.36.39,0,0-.02.01-.02.02,0,0,.04-.03.01-.01-.02.01-.04.03-.06.04-.03.02-.07.04-.11.06,0,0-.05.02-.01,0,.04-.02,0,0,0,0-.02,0-.04.02-.06.02-.04.01-.09.02-.13.03h.07c-.06,0-.13,0-.19,0h.07s-.05,0-.07,0c-.01,0-.03,0-.04-.01-.04-.01.04.02.02,0,0,0-.03-.01-.03-.02,0,0,.05.04.02,0-.02-.02.03.05.01.01l.02.03s0-.02,0-.03v.07s0-.06.01-.1v.07c.01-.13.04-.27.07-.4.02-.07.04-.13.06-.2,0-.01.01-.03.02-.04,0-.01.03-.06,0-.02-.02.04,0-.02.01-.02,0-.02.01-.03.02-.05.03-.06.07-.12.1-.18,0-.01.02-.03.03-.04,0,0,0-.01.01-.02.02-.03-.03.04-.01.01s.04-.05.06-.07c.04-.05.09-.09.14-.13.02-.02-.03.02-.02.02,0,0,.02-.01.02-.02.01,0,.02-.02.03-.02.03-.02.06-.04.09-.05s.06-.03.09-.05c0,0,.02,0,.03-.01,0,0-.05.02-.02,0,.02,0,.03-.01.05-.02.07-.02.14-.04.22-.05h-.07c.09,0,.18,0,.26,0h-.07s.04,0,.06,0c.07.01.13.01.19-.03.05-.03.1-.09.11-.15.03-.12-.04-.28-.17-.31h0Z"/>
    <path class="cls-1" d="M14.72,4.14c0,1.21,0,2.43-.21,3.62-.05.29-.12.57-.2.85-.06.21-.14.43-.28.61-.32.42-.97.49-1.46.55-.32.04-.66.07-.99.04-.15-.02-.54-.11-.48-.34.08-.31-.4-.44-.48-.13s.07.59.32.76.59.22.89.21c.35,0,.71-.04,1.06-.09.33-.05.66-.12.96-.25.57-.26.82-.81.98-1.38.18-.68.28-1.37.33-2.07.06-.79.06-1.58.06-2.37,0-.32-.5-.32-.5,0h0Z"/>
  </g>
  <path class="cls-1" d="M16.83.28c-.26,1.82-.52,3.64-.96,5.43-.07.26.33.46.46.19.11-.23.23-.47.45-.62.18-.13.45-.2.66-.1.19.09.28.3.33.49.08.31.09.64.06.96-.01.13.12.25.25.25.15,0,.24-.12.25-.25.06-.66-.01-1.64-.73-1.93-.33-.13-.71-.07-1.01.1-.32.19-.54.5-.69.84l.46.19c.44-1.79.7-3.61.96-5.43.02-.13-.03-.27-.17-.31-.12-.03-.29.04-.31.17h0Z"/>
  <g>
    <path class="cls-1" d="M20.75.35l-.99,3.24c-.32,1.03-.61,2.06-1.14,3.01-.16.28.27.53.43.25.54-.97.85-2.01,1.17-3.07l1.01-3.3c.09-.31-.39-.44-.48-.13h0Z"/>
    <path class="cls-1" d="M18.39,3.86c1.07-.09,2.15-.12,3.23-.08.13,0,.26-.12.25-.25,0-.14-.11-.25-.25-.25-1.08-.03-2.15,0-3.23.08-.13.01-.26.11-.25.25,0,.13.11.26.25.25h0Z"/>
  </g>
  <path class="cls-1" d="M27.79,3.72c-.62-.03-1.25-.04-1.82.24-.51.25-.9.7-1.08,1.23-.09.27-.13.57-.12.85.01.2.08.36.25.48.13.09.29.12.44.14.61.07,1.12-.34,1.48-.79.42-.53.78-1.1,1.06-1.71l-.43-.25c-.22.51-.37,1.05-.42,1.6-.03.27,0,.55.11.81.1.22.27.41.48.52.12.06.28.03.34-.09s.03-.28-.09-.34c-.03-.01-.05-.03-.08-.04-.04-.03.02.02-.02-.01-.04-.03-.07-.07-.1-.11.03.03,0,0-.01-.02-.01-.02-.02-.04-.03-.05-.01-.02-.02-.04-.03-.06-.03-.06,0,.02-.01-.03s-.03-.09-.04-.14c0,0-.01-.09-.01-.05,0-.03,0-.05,0-.08,0-.12,0-.24.01-.36,0,0,.01-.09,0-.05,0-.03,0-.05.01-.08,0-.06.02-.12.03-.18.02-.11.05-.23.08-.34.06-.21.15-.48.22-.65.05-.12.04-.27-.09-.34-.11-.06-.28-.04-.34.09-.22.49-.5.95-.81,1.38-.04.05-.07.1-.11.14.02-.03,0,0,0,.01-.01.01-.02.03-.03.04-.02.03-.04.06-.07.08-.08.09-.16.19-.25.27-.02.02-.05.04-.07.06,0,0-.02.02-.03.02,0,0-.04.03-.02.02s-.02.01-.02.02c0,0-.02.01-.03.02-.03.02-.06.04-.09.06-.03.02-.05.03-.08.04-.01,0-.02,0-.03.01.04-.02,0,0,0,0-.06.02-.12.04-.18.05-.02,0-.03,0-.05,0-.05,0-.01,0,0,0-.03,0-.06,0-.09,0-.03,0-.05,0-.08,0,0,0-.06,0-.02,0s-.04,0-.03,0c-.03,0-.05-.01-.08-.02-.01,0-.03-.01-.04-.02-.04-.01.03.02,0,0-.02-.01-.04-.02-.06-.04.05.04,0,0,0,0v.02s0-.02,0,0c0,.03,0-.02,0-.03,0-.04,0,.03,0,0,0-.03,0-.06,0-.08,0-.06,0-.13,0-.19,0-.03,0-.06,0-.1,0,.05,0-.04,0-.05.01-.06.03-.13.04-.19.02-.06.04-.12.06-.17,0-.01,0-.02.01-.03-.01.04,0,0,0,0,.02-.03.03-.07.05-.1.03-.05.06-.11.09-.16.02-.02.03-.05.05-.07,0,0,.01-.02.02-.03.02-.02-.02.03,0,0,.08-.09.15-.17.24-.25,0,0,.06-.05.04-.04-.02.02.01,0,.02-.01,0,0,.02-.01.03-.02.05-.04.1-.07.16-.1s.11-.06.17-.09c.04-.02.01,0,0,0,.02,0,.04-.01.05-.02.03-.01.07-.02.1-.03.07-.02.15-.04.23-.06.03,0,.07-.01.1-.02.05,0,.02,0,.01,0,.02,0,.04,0,.07,0,.31-.03.63-.02.94,0,.13,0,.26-.12.25-.25,0-.14-.11-.24-.25-.25h0Z"/>
  <path class="cls-1" d="M28.62,4.64c.03.83,0,1.67-.1,2.49-.01.12.11.23.22.25.13.02.23-.06.27-.18-.02.05,0-.02.01-.02,0-.01.01-.03.02-.04.02-.03.03-.07.05-.1.03-.07.07-.14.11-.2.07-.13.15-.27.24-.39.04-.06.08-.12.13-.18,0,0,.04-.05.01-.01,0-.01.02-.02.03-.04.03-.04.06-.07.09-.11.1-.12.21-.24.32-.35.05-.05.1-.1.16-.15,0,0,.05-.05.03-.02s.03-.02.03-.02c.01,0,.03-.02.04-.03.01,0,.03-.02.04-.02.02-.01.03-.01.01,0-.03.01.04,0,.03,0-.06.02,0-.01,0,0h.02s-.03,0,0,0c.01,0,.03.02,0,0,0,0,.06.04.03.02s.03.02.02.02c.03.03.05.05.07.08.05.05-.02-.04.01.02,0,.01.02.02.02.04.02.03.04.06.05.09,0,.01.01.03.02.04.03.06-.01-.05,0,.02.01.03.02.07.03.1s.02.07.02.1c0,.01,0,.03,0,.04.01.07,0-.05,0,.02s0,.14,0,.21c0,.04,0,.09-.01.13,0-.01,0-.04,0,0,0,.03,0,.05-.01.07-.02.09-.04.18-.07.27-.06.19-.13.37-.21.55-.05.12.05.28.17.31.14.03.25-.04.31-.17.15-.37.29-.74.32-1.13.02-.33-.06-.69-.26-.96-.12-.16-.27-.32-.48-.36-.24-.04-.45.07-.63.22-.28.23-.52.52-.73.8-.24.32-.43.67-.58,1.04l.49.07c.1-.83.13-1.66.1-2.49,0-.13-.11-.26-.25-.25s-.25.11-.25.25h0Z"/>
  <path class="cls-1" d="M31.58,3.6c-.03.62.01,1.25.12,1.87.04.25.08.5.23.71s.38.33.64.36c.51.07,1.08-.08,1.23-.62.08-.29.09-.61.13-.91.04-.32.09-.65.13-.97l-.49-.07c.09,1.31,0,2.63-.28,3.91-.22,1-.55,2.1-1.43,2.72-.4.29-1.23.57-1.53-.02-.14-.29-.58-.03-.43.25.28.55.99.68,1.54.53.6-.17,1.1-.62,1.46-1.12s.56-1.05.72-1.62c.19-.69.31-1.4.39-2.12.09-.84.11-1.69.05-2.54-.02-.26-.45-.36-.49-.07-.07.51-.14,1.02-.21,1.54-.02.18-.02.43-.18.53-.15.1-.38.1-.55.08-.44-.06-.44-.58-.49-.93-.07-.5-.09-1.01-.07-1.52.01-.32-.49-.32-.5,0h0Z"/>
  <path class="cls-1" d="M38.19,3.06c-.31.77-.54,1.58-.66,2.4-.03.21-.06.42-.08.63-.02.18-.04.37.06.53.12.18.36.22.55.14s.31-.24.44-.38c.32-.36.65-.73.97-1.09l-.43-.18c0,.49.02,1.04.32,1.46.15.2.36.36.61.39.24.03.46-.07.63-.24s.27-.37.37-.57c.13-.24.25-.49.37-.73.24-.5.48-1,.7-1.5.26-.57.5-1.15.73-1.73.05-.13-.05-.27-.17-.31-.14-.04-.26.05-.31.17-.36.9-.74,1.78-1.16,2.65-.21.44-.42.87-.65,1.3-.11.22-.33.63-.62.39-.16-.13-.23-.35-.27-.55-.05-.24-.05-.49-.05-.73,0-.21-.28-.34-.43-.18-.31.35-.63.7-.94,1.06-.08.09-.15.18-.24.26,0,0-.07.06-.07.05,0,0,.06.04.06.04,0,0,0,0,0,.01,0-.02,0-.04,0-.06,0-.05,0-.1.01-.14.01-.11.02-.23.04-.34.11-.9.35-1.78.69-2.62.05-.13-.06-.27-.17-.31-.14-.04-.26.05-.31.17h0Z"/>
  <path class="cls-1" d="M43.43,4.36c-.47.03-.93.26-1.23.63-.16.19-.27.41-.36.64-.08.21-.14.44-.13.66,0,.26.09.53.3.69.25.2.56.07.78-.1.34-.26.6-.61.77-1,.1-.21.18-.44.25-.66.05-.15.09-.33.04-.49-.05-.17-.17-.29-.34-.35-.06-.02-.14,0-.19.03s-.1.09-.11.15c-.03.15.04.25.17.31-.06-.02-.03-.01-.02,0,.03.01,0,.01-.01-.01,0,0,.01.01.02.02.02.02-.03-.04-.01-.01,0,0,0,.02.02.03.01.02,0-.02,0-.02,0,0,0,.02,0,.03h0s0,.03,0,.01v-.02s0,.02,0,.03c0,0,0,.03,0,.03v-.02s0,.01,0,.02c0,.01,0,.03,0,.04-.01.05-.03.1-.05.15-.03.08-.05.16-.08.24-.01.04-.03.08-.04.12,0,.02-.01.04-.02.05,0,0,0,.02,0,.02-.02.05.02-.05,0,0-.07.16-.15.31-.24.45-.02.04-.05.07-.07.1,0,0-.01.02-.02.03,0,0-.02.03,0,0,.02-.03,0,0,0,0,0,.01-.02.02-.03.03-.06.07-.12.13-.18.19-.03.03-.07.05-.1.08,0,0,.04-.03.02-.01,0,0-.02.01-.03.02-.02.02-.04.03-.06.04-.02.01-.04.02-.05.03,0,0-.02,0-.02.01-.05.03,0,0,0,0,0,0-.07.01-.07.02,0,0,.05,0,.02,0-.03,0-.03,0,0,0-.05-.01.01,0,.01,0,0,0-.03-.02-.03-.02,0,0,.04.03.02.01,0,0-.02-.01-.02-.02-.04-.04.02.03,0,0-.01-.02-.03-.05-.04-.07-.03-.06,0,.03,0-.01,0-.02-.01-.04-.02-.07,0-.02,0-.04-.01-.06,0-.03,0,.05,0,.01,0-.01,0-.03,0-.04,0-.04,0-.08,0-.12,0-.01,0-.02,0-.04,0-.05,0,0,0,.01,0-.02,0-.06.01-.08.02-.09.04-.18.07-.27.01-.04.03-.08.04-.12.02-.04,0,0,0,0,0-.01.01-.02.01-.03.01-.02.02-.04.03-.07.04-.09.09-.17.15-.25,0-.01.01-.02.02-.03.02-.03-.04.05,0,0,.02-.02.03-.04.05-.06.04-.04.07-.08.11-.12.02-.02.03-.03.05-.05,0,0,.02-.02.03-.02-.01.02-.03.02,0,0,.04-.03.08-.06.13-.08s.09-.05.13-.07c0,0,.04-.02.01,0-.03.02.01,0,.02,0,.02,0,.05-.02.07-.02.05-.02.1-.03.16-.04.02,0,.05,0,.07-.01-.04.02-.03,0-.01,0,.02,0,.04,0,.05,0,.13,0,.26-.11.25-.25,0-.13-.11-.26-.25-.25h0Z"/>
  <path class="cls-1" d="M44.75,4.42c-.01.19-.03.39-.04.58,0,.1-.02.2-.03.3,0,.05-.01.1-.02.15,0,.06,0-.04,0,.02,0,.02,0,.05-.01.07-.06.39-.15.77-.29,1.14l.49.07s0-.05,0-.08c0,0,0-.04,0,0,0,.03,0,0,0-.01,0-.05.02-.09.04-.14.02-.05,0,0,0,0,0,0,.01-.03.02-.04.01-.02.02-.04.03-.06.03-.05.06-.09.09-.14.01-.02.03-.04.04-.06,0,0,.05-.08.02-.03.03-.04.07-.08.1-.12.07-.09.15-.18.22-.26.14-.16.27-.32.42-.47.07-.07.15-.14.23-.21.02-.02,0,0-.01,0,.01,0,.02-.02.03-.02.02-.01.04-.03.06-.04.04-.03.09-.06.13-.08.03-.01.05-.03.08-.04,0,0,.02,0,.03-.01.03-.01-.04.01,0,0,.05-.02.11-.04.16-.05.03,0,.06-.01.09-.02,0,0,.02,0,.03,0,.03,0-.05,0,0,0,.06,0,.12,0,.18,0,.13,0,.26-.12.25-.25,0-.14-.11-.24-.25-.25-.49-.02-.94.23-1.29.56-.16.15-.31.33-.46.5-.16.19-.33.38-.47.59-.16.22-.28.47-.27.75,0,.13.09.23.22.25s.23-.06.27-.18c.3-.76.36-1.59.41-2.39,0-.13-.12-.26-.25-.25-.14,0-.24.11-.25.25h0Z"/>
  <path class="cls-1" d="M49.65,7.38c-.28-1.26-.38-2.57-.1-3.84.25-1.11.77-2.14,1.55-2.97.22-.23-.13-.59-.35-.35-.84.88-1.42,2-1.68,3.19-.3,1.35-.21,2.76.1,4.1.07.31.55.18.48-.13h0Z"/>
  <path class="cls-1" d="M49.41,4.95c.04-.13.02-.27-.06-.38-.08-.12-.19-.19-.33-.23-.2-.07-.42-.06-.62-.02-.39.08-.73.32-.95.64-.11.16-.19.35-.23.53s-.08.38-.07.57c0,.11.03.21.08.31.06.11.17.19.29.23.19.06.43.03.62-.02.39-.1.76-.36.94-.73.06-.12.04-.28-.09-.34-.11-.06-.28-.04-.34.09-.01.03-.03.06-.05.08,0,.01-.02.03-.03.04,0,.01-.04.06-.01.02.03-.04-.01.01-.02.02-.01.01-.02.02-.03.03-.02.03-.05.05-.08.07-.01.01-.03.02-.04.03-.03.03.05-.03,0,0-.03.02-.06.04-.1.06-.03.02-.06.03-.08.05-.02,0-.03.02-.05.02,0,0-.02,0-.03.01,0,0,.05-.02.02,0-.07.03-.14.05-.21.07-.02,0-.03,0-.05,0,0,0-.08.01-.03,0,.04,0-.01,0-.02,0-.02,0-.04,0-.06,0-.04,0-.08,0-.11,0,0,0,.06.01.02,0,0,0-.01,0-.02,0-.01,0-.04-.02,0,0,.04.02,0,0,0,0-.04-.02.04.04,0,0,0,0-.03-.03,0,0s0,.01,0,0c0,0,0-.01,0-.02-.02-.03.01.03.01.03,0,0-.01-.05-.01-.05-.01-.05,0,.05,0,.01,0-.02,0-.03,0-.05,0-.04,0-.07,0-.11s0-.07,0-.11c0-.02,0-.03,0-.05,0,.08,0,0,0-.02.01-.08.03-.15.05-.23.01-.04.02-.07.04-.11.02-.06-.02.05,0,0,0-.02.02-.04.03-.05.04-.07.08-.14.12-.2.02-.03,0,.01-.01.01,0,0,.01-.02.02-.02.01-.01.02-.02.03-.04.03-.03.05-.06.08-.08.01-.01.02-.02.04-.03,0,0,.01-.01.02-.02.02-.02-.02.02-.02.02.03-.02.06-.04.09-.06s.07-.04.1-.06c.02,0,.03-.01.05-.02,0,0,.04-.02,0,0-.04.02,0,0,.01,0,.08-.03.16-.05.24-.07.04,0-.02,0-.02,0,.01,0,.02,0,.04,0,.02,0,.04,0,.07,0,.04,0,.08,0,.12,0,0,0,.02,0,.03,0,.03,0-.06-.01-.01,0,.02,0,.04,0,.07.01s.04.02.06.02c0,0-.05-.02-.03-.01.01,0,.02.01.03.02,0,0,.02.01.02.02-.02,0-.04-.04-.01,0,0,0,0,.01.01.02-.02-.03-.03-.04-.02-.02,0,0,0,.01.01.02,0,0-.02-.05-.01-.03.01.05,0-.02,0-.02,0,0,0,.02,0,.03v-.04s0,.02,0,.03c-.04.12.05.28.17.31.14.03.26-.04.31-.17h0Z"/>
  <path class="cls-1" d="M56.33.52c-.72,2.16-1.41,4.34-2.05,6.53-.09.31.39.44.48.13.65-2.19,1.33-4.37,2.05-6.53.1-.31-.38-.44-.48-.13h0Z"/>
  <path class="cls-1" d="M54.11,3.92c.98-.09,1.97-.17,2.96-.24.13,0,.26-.11.25-.25,0-.13-.11-.26-.25-.25-.99.07-1.97.15-2.96.24-.13.01-.26.11-.25.25,0,.13.11.26.25.25h0Z"/>
  <path class="cls-1" d="M57.74,4.25c-.26-.07-.53-.03-.78.09-.23.11-.41.29-.55.51s-.22.45-.31.68c-.09.25-.21.49-.26.75-.03.14-.05.28-.03.42.01.11.03.21.1.29.06.06.13.1.21.12.26.06.55.05.8-.04s.45-.26.62-.46.31-.42.43-.65c.13-.25.23-.52.28-.8.03-.17.04-.35-.03-.51s-.2-.27-.36-.34c-.12-.05-.28.05-.31.17-.03.14.04.26.17.31-.08-.03.02.01.02.01,0,0-.03-.03-.02-.01,0,0,.02.02.02.02.02.02-.02-.04,0-.01,0,0,0,.01.01.02,0,0,.02.03.02.03,0,0-.02-.05,0,0,0,.02.01.07,0,.02,0,.03,0,.06,0,.09,0,.01,0,.03,0,.04,0,0,0-.04,0-.01,0,.03-.01.06-.02.1-.02.1-.05.2-.08.3-.02.05-.03.09-.05.14,0,.01,0,.02-.01.04,0,0-.02.04,0,0,.01-.03,0,0,0,.02,0,.02-.01.03-.02.05-.09.19-.2.37-.32.54,0,0-.01.02-.02.02-.02.03.02-.03,0,0-.01.02-.03.04-.04.05-.03.04-.07.08-.11.12-.03.04-.07.07-.11.1,0,0-.04.03-.01.01s0,0-.02.01c-.03.02-.05.03-.08.05-.02.01-.04.02-.06.03,0,0-.02.01-.03.01.02,0,.04-.01,0,0-.05.02-.1.03-.15.05-.01,0-.06.02-.08.01,0,0,.06,0,0,0,0,0-.02,0-.03,0-.05,0-.11,0-.16,0-.01,0-.03,0-.04,0-.04,0,.04,0,0,0-.02,0-.05,0-.07-.01-.01,0-.03,0-.04,0-.02,0-.03-.02.01,0,.02.01.03.03.05.05.04.06.02.02.01,0,0,0,0,.05,0,0,0-.01,0-.03,0-.04,0-.03,0-.05,0-.08s0-.05,0-.08c0,.05,0,.01,0,0,0-.02,0-.04.01-.05.05-.23.14-.44.23-.66.04-.1.08-.21.12-.31,0-.02.02-.04.03-.06.01-.03-.02.04,0,0,0,0,0-.02.01-.03.02-.05.04-.1.07-.14.03-.05.06-.1.09-.15.01-.02.03-.05.05-.07-.03.02-.02.02,0,0,.01-.01.02-.03.03-.04.04-.04.07-.08.11-.11.03-.03,0,0,0,0,0,0,.03-.02.04-.03.02-.02.05-.03.07-.04.02-.01.04-.02.06-.03,0,0,.02-.01.03-.02-.05,0-.02,0,0,0,.05-.02.1-.03.15-.04,0,0,.03,0,.04,0-.03,0-.04,0,0,0,.03,0,.05,0,.08,0,.01,0,.02,0,.04,0,.04,0,0,0-.01,0,.02.01.07.01.09.02.13.04.28-.04.31-.17s-.04-.27-.17-.31h0Z"/>
  <path class="cls-1" d="M61.99,5.55c.44-.06.88-.28,1.18-.61.08-.09.15-.18.21-.28.09-.16.11-.35-.01-.5-.18-.23-.52-.26-.78-.16s-.43.3-.57.53-.25.46-.32.71c-.08.28-.07.58.14.8.09.1.21.16.32.23s.23.14.35.21.23.15.36.2c.15.07.3.11.46.12.28.01.58-.08.82-.23.11-.07.16-.23.09-.34s-.22-.16-.34-.09c-.04.02-.08.05-.12.07-.01,0-.02.01-.03.02-.03.02.04-.02,0,0-.03.01-.05.02-.08.03-.04.01-.08.03-.13.03-.02,0-.05.01-.07.01,0,0,.06,0,.01,0-.02,0-.03,0-.05,0-.05,0-.09,0-.14,0,0,0-.04,0,0,0,.04,0,0,0-.01,0-.03,0-.05-.01-.08-.02-.02,0-.05-.01-.07-.02,0,0-.05-.02-.02,0s0,0-.02,0c-.05-.02-.1-.05-.14-.08-.2-.12-.4-.24-.6-.36-.04-.02-.08-.05-.11-.07-.04-.03,0,0,0,0,0,0-.02-.02-.03-.02,0,0-.02-.02-.03-.03-.03-.03,0,0,0,0,0,0-.04-.06-.04-.06,0,0,.02.06,0,.01,0-.01,0-.02,0-.03,0,0,0-.02,0-.03,0-.03,0,.05,0,.01,0-.03,0-.05,0-.08,0,0,0-.03,0-.04,0,0,0,.05,0,.02,0-.02,0-.05.01-.07.01-.05.03-.11.05-.16,0-.02.02-.05.02-.07,0-.01,0-.03.02-.04-.02.05,0,.01,0,0,.02-.05.05-.1.07-.15.05-.09.1-.18.15-.27.02-.04.05-.08.08-.11s0,0,0,0c0,0,.02-.02.02-.03.02-.02.03-.04.05-.05s.04-.04.06-.05c0,0-.04.03,0,0,0,0,.02-.01.03-.02.02-.01.04-.02.05-.03.03-.02-.04.01-.01,0,.01,0,.03-.01.04-.01.02,0,.04,0,.06-.01.03,0-.05,0-.01,0,.01,0,.02,0,.04,0s.06,0,.06,0c0,0-.05-.01-.01,0,.01,0,.03,0,.04.01.03,0-.04-.02-.01,0,0,0,.02,0,.02.01.05.02-.01,0,0-.01,0,0,.02.02.02.02,0,0-.03-.05-.01-.01,0,0-.02-.05-.01-.02.01.03,0-.04,0-.04,0-.02,0-.02,0,0v-.02s-.02.05-.03.06c-.01.02-.02.03-.03.05s-.02.03-.03.05c.04-.06,0,0-.02.02-.03.04-.07.07-.1.11-.03.03-.07.08-.11.1.04-.01.03-.02,0,0-.01,0-.02.02-.03.03-.02.02-.04.03-.06.04-.04.03-.08.05-.13.08s-.1.04-.13.07c.03-.03.03-.01.01,0-.01,0-.03.01-.04.02-.03,0-.05.02-.08.03-.1.03-.21.06-.31.07-.06,0-.12.07-.15.11-.03.05-.04.13-.03.19.05.14.17.19.31.17h0Z"/>
  <path class="cls-1" d="M65.68,3.95c.14.18.23.39.33.6.11.22.25.41.4.6.31.39.66.76.99,1.14.19.22.39.44.58.67.09.1.27.09.35,0,.1-.11.09-.25,0-.35-.34-.38-.67-.77-1.01-1.15-.16-.18-.32-.36-.48-.55-.08-.1-.13-.15-.19-.25s-.13-.19-.18-.29c-.12-.22-.21-.46-.37-.66-.08-.1-.22-.17-.34-.09-.1.07-.17.23-.09.34h0Z"/>
  <path class="cls-1" d="M68.67,3.43c-1.03,1.08-2.29,1.89-3.4,2.88-.31.28-.61.57-.89.88-.09.1-.1.25,0,.35.09.09.26.1.35,0,.99-1.11,2.25-1.93,3.37-2.89.32-.27.63-.56.92-.86.22-.23-.13-.59-.35-.35h0Z"/>
  <path class="cls-1" d="M69.94,4.24c-.49,1.1-.69,2.28-.92,3.45-.11.59-.24,1.17-.42,1.74s-.41,1.17-.47,1.8c-.03.32.47.32.5,0,.06-.6.3-1.16.47-1.73s.29-1.11.4-1.68c.22-1.12.4-2.28.87-3.33.06-.12.04-.27-.09-.34-.11-.06-.29-.03-.34.09h0Z"/>
  <path class="cls-1" d="M70.42,4.79s.06-.03.1-.05c.01,0,.06-.04,0,0,.01,0,.03-.01.05-.02.03-.01.06-.02.09-.03.02,0,.03,0,.05-.01.01,0,.02,0,.03,0,.03,0,.02,0-.01,0,.01-.01.09,0,.1,0,.05,0-.02,0-.02,0,0,0,.04,0,.05.01s.04.02.05.02h-.03s.02,0,.03,0c.01,0,.02.02.04.02.04.02-.04-.04,0,0,.02.02.04.05.05.06l-.02-.03s.01.02.02.02c0,.01.02.02.02.04s.01.02.02.04c0,0,.02.05,0,0s0,0,0,0c0,.02.01.04.02.05,0,.03.02.07.02.1v-.03s0,.03,0,.04c0,.01,0,.03,0,.04,0,.08,0,.17.01.25s.02.17.03.25c0,.04.02.07.02.11,0,.01,0,.02,0,.04,0,.01,0,.02,0,.04,0-.04,0-.04,0-.01,0,.03,0,.06,0,.1,0,.05.01-.06,0,0,0,0,0,.02,0,.03,0,.03-.02.06-.03.08v-.03s0,.02,0,.03c0,.02-.02.04-.03.05,0,.01-.01.02-.02.03-.02.03-.01,0,0,0,0,0-.02.03-.03.03-.01.01-.02.02-.03.03s-.02.02-.03.03h-.01s-.02.02.01,0c-.03.01-.05.04-.08.05-.01,0-.03.02-.04.02h-.01s-.02.02.01,0c0,.01-.07.03-.09.03-.03,0-.06.02-.09.02,0,0-.05.01-.05,0,.04,0,.04,0,.02,0-.01,0-.02,0-.03,0-.03,0-.07,0-.1,0-.02,0-.11,0-.12,0h.03s-.02,0-.03,0c-.02,0-.04,0-.06-.01-.03,0-.06-.03-.08-.03h.03s-.02,0-.03,0c-.02,0-.03-.02-.05-.03,0,0-.02-.02-.04-.02l.03.02s-.01-.01-.02-.02c0,0-.02-.02-.03-.03-.03-.03.04.05,0,0-.03-.04.02.06,0,.01,0-.02-.01-.08,0,0-.01-.13-.11-.26-.25-.25-.13,0-.26.11-.25.25.03.4.43.58.79.61s.72-.09.96-.35c.11-.12.21-.28.24-.45.02-.11.02-.21,0-.32-.01-.09-.03-.17-.05-.26,0-.05,0,.04,0,0,0-.02,0-.04,0-.07,0-.04,0-.09,0-.13,0-.11-.01-.21-.03-.31-.03-.16-.11-.31-.21-.44-.14-.16-.35-.24-.56-.24-.22,0-.43.09-.62.19-.12.06-.16.23-.09.34.08.12.22.15.34.09h0Z"/>
  <path class="cls-1" d="M73.04.28l-1.21,6.51c-.06.31.42.45.48.13l1.21-6.51c.06-.31-.42-.45-.48-.13h0Z"/>
  <path class="cls-1" d="M74.68,4.13c-.24-.03-.47-.05-.71,0-.28.06-.48.24-.62.48-.27.46-.43.99-.46,1.53,0,.13,0,.25,0,.38.01.13.04.27.12.38.19.26.54.31.83.22.53-.15.81-.68,1.01-1.15.13-.29.23-.6.22-.92s-.12-.67-.46-.77c-.12-.04-.28.05-.31.17-.03.14.04.27.17.31.04.01,0,0,0,0,0,0,.02.01.02.01.03.01-.03-.03,0,0,0,0,.01.01.02.02.04.03,0-.01,0-.01,0,0,.02.03.02.03,0,0,0,.02.01.02.02.04,0,.01,0,0,0,.01.02.05.02.06,0,.02.01.05.02.07,0,.01,0,.03,0,.04,0,0,0-.04,0-.01,0,.03,0,.07,0,.1,0,.05,0,.1,0,.16,0,0,0,.04,0,.01,0-.03,0,.01,0,.02,0,.03-.01.06-.02.09-.03.11-.06.22-.1.33,0,.01,0,.02-.01.03.02-.04,0,0,0,0-.01.02-.02.05-.03.07-.02.05-.05.11-.08.16-.05.1-.1.2-.16.29-.03.04-.05.08-.08.12,0,.01-.02.02-.03.03,0,0,.02-.03,0,0-.02.02-.04.05-.06.07-.02.02-.04.04-.05.05-.01.01-.06.05-.02.02-.04.03-.08.06-.13.08,0,0-.05.02-.02,0,.03-.01,0,0,0,0-.03,0-.05.02-.08.02-.02,0-.04,0-.06.01-.05.01,0,0,0,0-.01,0-.04,0-.05,0-.02,0-.05,0-.07,0,0,0,.06.01,0,0-.01,0-.02,0-.03,0-.01,0-.03,0-.04-.01-.03,0,0,0,.01,0-.01,0-.02-.02-.04-.02.02,0,.03.02,0,0-.04-.03,0,0,0,0,0,0-.02-.03-.02-.03,0,0-.01-.03,0,0,.01.03,0,0,0-.01,0-.01-.02-.05-.01-.06,0,0,0,.05,0,.02,0-.02,0-.03,0-.05,0-.11,0-.22,0-.33,0-.05,0-.1.01-.15,0-.03,0-.05,0-.08,0-.04,0,.04,0,0,0-.01,0-.03,0-.04.02-.11.04-.22.07-.33s.06-.21.1-.32c0-.02.02-.05.03-.07-.02.04,0-.02.02-.03.02-.05.05-.1.07-.15.03-.06.06-.11.09-.16.01-.02.03-.05.05-.07.02-.03-.03.03,0,0,.01-.01.02-.03.04-.04,0,0,.02-.01.02-.02,0,0,.01,0,.02-.01.02-.01.01,0-.01.01,0,0,.06-.04.06-.04s.03-.01.03-.02c0,0-.05.02,0,0,.03,0,.05-.02.08-.02.02,0,.05,0,.07-.01.03,0-.02,0-.02,0,0,0,.04,0,.05,0,.06,0,.11,0,.17,0,.11,0,.22.02.33.03.13.02.26-.13.25-.25,0-.15-.11-.23-.25-.25h0Z"/>
  <path class="cls-1" d="M75.94,4.44c-.11.73-.24,1.46-.37,2.19-.02.13.04.28.17.31s.27-.04.31-.17c0-.03.02-.06.03-.09,0-.01,0-.02.01-.03.01-.04-.02.03,0,0,.02-.05.05-.1.08-.15s.06-.1.09-.15c.02-.02.03-.05.05-.07,0-.01.02-.03.03-.04,0,0,.04-.05.02-.03-.02.02,0-.01,0-.01,0-.01.02-.02.03-.04.02-.02.04-.05.06-.07.04-.05.08-.09.12-.14.08-.09.17-.19.25-.28.16-.18.33-.36.52-.52.05-.04.09-.08.14-.12,0,0,.02-.02.03-.02-.03.02,0,0,0,0,.03-.02.05-.04.08-.06.09-.07.19-.13.29-.18.06-.03.12-.06.18-.09,0,0,.04-.02,0,0,.01,0,.03-.01.04-.02.03-.01.07-.02.1-.04.13-.04.26-.07.4-.09s.21-.19.17-.31c-.05-.14-.17-.19-.31-.17-.52.07-.99.33-1.39.66-.2.17-.39.36-.56.55s-.35.38-.51.58c-.19.24-.36.5-.45.8l.48.13c.13-.73.26-1.46.37-2.19.02-.13-.03-.28-.17-.31-.12-.03-.29.04-.31.17h0Z"/>
  <path class="cls-1" d="M79.01,5.53c.53-.1,1.2-.27,1.38-.86.05-.15.04-.34-.06-.47-.1-.14-.25-.21-.42-.23-.29-.03-.55.14-.72.36-.35.45-.56,1.02-.42,1.59.12.5.51.91,1,1.08s1.16.06,1.51-.36c.08-.1.11-.26,0-.35-.09-.08-.26-.11-.35,0-.03.03-.06.07-.09.09-.01,0-.06.04-.03.02s0,0,0,0c-.01,0-.02.02-.03.02-.04.02-.08.04-.12.06s.04-.02-.01,0c-.02,0-.05.02-.07.03-.04.01-.09.03-.14.03-.01,0-.07.01-.04,0s0,0-.01,0c-.01,0-.03,0-.04,0-.05,0-.09,0-.14,0-.02,0-.04,0-.06,0-.01,0-.02,0-.04,0-.03,0,.05,0,0,0s-.09-.02-.14-.03c-.02,0-.04-.01-.06-.02-.01,0-.02,0-.03-.01-.03-.01-.03,0,0,0-.02,0-.05-.02-.07-.03-.02-.01-.04-.02-.07-.04-.02-.01-.04-.02-.06-.03-.01,0-.02-.01-.03-.02-.03-.02-.02,0,0,0-.01,0-.05-.04-.06-.05-.02-.02-.04-.03-.05-.05-.03-.03-.08-.07-.1-.11,0,0,.03.04,0,0,0,0-.01-.02-.02-.03-.01-.02-.03-.04-.04-.06-.02-.04-.05-.08-.07-.13,0,0,0-.03-.01-.03,0,0,.02.05,0,.01,0-.02-.02-.04-.02-.07-.01-.04-.03-.09-.04-.14,0-.02-.02-.09,0-.02,0-.02,0-.05,0-.07,0-.06,0-.12,0-.17,0-.02,0-.06,0-.08,0,0,0,.05,0,0,0-.01,0-.02,0-.03.01-.06.02-.12.04-.17.02-.05.03-.1.05-.15.01-.04-.02.04,0,0,0-.01.01-.03.02-.04.01-.03.03-.06.04-.09.03-.05.05-.09.08-.14.02-.02.03-.05.05-.07,0-.01.02-.02.03-.04,0-.01.04-.05,0,0,.03-.04.06-.07.09-.11,0,0,.02-.02.03-.03,0,0,.04-.03.01-.01s0,0,.01,0c.01,0,.03-.02.04-.03,0,0,.03-.02.03-.02,0,0-.05.02,0,0,.02,0,.04,0,.06-.02.03,0-.05,0-.01,0,.01,0,.02,0,.04,0s.02,0,.04,0c.03,0-.06-.02,0,0,.01,0,.02,0,.03,0,.04.01-.02,0-.01,0,0,0,.02.01.02.01.03.02-.04-.03-.01-.01,0,0,.03.03,0,0-.03-.04.02.03,0,0-.02-.02,0,0,0,.01.01.02,0-.05,0,0,0,0,0,.04,0,.04,0,0,.01-.06,0,0,0,0,0,.02,0,.03,0,0,0,.02,0,.03,0,.02,0,.01,0-.02,0,.02-.03.05-.03.06,0,.01-.01.02-.02.03-.03.05.03-.04,0,0-.03.04-.08.1-.12.12,0,0,.04-.03.01,0-.01,0-.03.02-.04.03-.03.02-.06.03-.08.05-.02.01-.05.02-.07.04-.01,0-.03.01-.04.02.04-.02,0,0-.01,0-.06.02-.13.05-.2.06-.14.04-.28.07-.42.09-.13.02-.21.19-.17.31.04.14.17.2.31.17h0Z"/>
  <path class="cls-1" d="M2.19,14.93c-.28,1.11-.57,2.22-.9,3.32s-.7,2.19-1.07,3.28c-.1.31.38.44.48.13.37-1.09.74-2.18,1.07-3.28s.61-2.21.9-3.32c.08-.31-.4-.44-.48-.13h0Z"/>
  <path class="cls-1" d="M.22,18.38c.27,0,.54-.02.81-.07.24-.04.46-.13.7-.18.11-.02.21-.03.33-.03s.25,0,.38,0c.26,0,.53,0,.79,0,.13,0,.26-.11.25-.25s-.11-.25-.25-.25c-.26,0-.53,0-.79,0s-.53,0-.79.04c-.24.04-.46.13-.7.18s-.47.07-.73.06c-.13,0-.26.12-.25.25s.11.25.25.25H.22Z"/>
  <path class="cls-1" d="M4.56,14.69c-.26,1.83-.57,3.66-.92,5.47l.49.07c0-.25.27-.43.46-.55.21-.13.49-.34.72-.12s.11.6.06.87c-.07.39-.13.77-.2,1.16-.05.31.43.45.48.13.09-.51.19-1.02.26-1.54.06-.44-.03-.91-.46-1.13s-.81,0-1.16.23-.66.52-.67.95c0,.27.44.35.49.07.35-1.82.66-3.64.92-5.47.02-.13-.03-.27-.17-.31-.12-.03-.29.04-.31.17h0Z"/>
  <path class="cls-1" d="M6.43,19.83c.54.11,1.17-.1,1.41-.63.06-.13.1-.26.1-.41,0-.16-.02-.34-.16-.45-.13-.1-.31-.09-.46-.09-.14,0-.29.02-.42.07-.28.11-.45.35-.54.63s-.14.59-.12.88c.02.28.07.58.24.8s.44.37.69.51c.29.15.6.27.93.28.31.01.62-.08.86-.28.1-.09.09-.27,0-.35-.11-.1-.25-.09-.35,0,0,0-.04.03,0,0,0,0-.02.01-.02.02-.02.01-.04.02-.06.04s-.04.02-.06.03c-.03.02.04-.01,0,0-.02,0-.03.01-.05.02-.05.01-.09.02-.14.03,0,0-.04,0,0,0,.03,0,0,0-.02,0-.03,0-.05,0-.08,0-.05,0-.1,0-.14,0-.02,0-.08-.01-.03,0-.03,0-.06-.01-.09-.02-.05-.01-.11-.03-.16-.04-.03,0-.05-.02-.08-.03-.01,0-.03-.01-.04-.02,0,0-.06-.02-.02,0-.2-.09-.41-.2-.59-.32-.01,0-.02-.02-.04-.03,0,0-.03-.02-.01,0,.02.02-.01-.01-.02-.02,0,0-.02-.01-.02-.02-.02-.02-.03-.04-.05-.06-.03-.03.02.03,0,0,0-.02-.02-.03-.03-.04-.01-.02-.02-.04-.03-.06,0-.01-.01-.03-.02-.04,0,0,.02.05,0,0-.02-.05-.03-.1-.05-.15,0-.02-.01-.05-.01-.07,0-.01,0-.03,0-.04,0,0,0,.05,0,.01,0-.06-.01-.12-.01-.18,0-.06,0-.11,0-.17,0-.03,0-.06,0-.09,0-.02,0-.03,0-.05,0,0,0-.06,0-.02.02-.12.04-.23.08-.35,0-.02.01-.04.02-.06,0-.01,0-.02.01-.04,0,0-.02.04,0,.02.02-.04.05-.09.07-.13,0-.01.03-.03,0,0,0,0,.01-.01.02-.02.02-.02.03-.03.05-.05.03-.03,0,0,0,0,0,0,.02-.01.03-.02.01,0,.03-.01.04-.02.03-.02-.05.02,0,0,.05-.02.1-.03.15-.04-.05,0,.01,0,.03,0,.03,0,.06,0,.09,0,.05,0,.1,0,.16,0,.01,0,.02,0,.03,0,.05,0,0,0,0,0h0s.01,0-.05-.03l-.04-.06v.02s.01.04.01.04,0-.05,0-.02c0,.02,0,.05,0,.07s0,.05,0,.07c0,.04.01-.04,0,0,0,.02,0,.03-.01.05,0,.03-.01.05-.02.07,0,0-.01.04,0,0,.01-.03,0,.02-.01.02-.01.02-.03.05-.04.07-.01.02-.05.07-.02.03-.04.04-.08.08-.12.12-.02.02,0,0,.01,0-.01,0-.03.02-.04.03-.02.01-.05.03-.07.04-.01,0-.1.04-.04.02-.03,0-.05.02-.08.03-.05.02-.11.03-.16.04.05,0-.02,0-.04,0-.03,0-.06,0-.08,0-.03,0-.06,0-.09,0-.03,0,.01,0,.01,0-.02,0-.04,0-.06-.01-.13-.03-.28.04-.31.17-.03.13.04.28.17.31h0Z"/>
  <path class="cls-1" d="M13.03,17.6c-.1.98-.14,1.97-.12,2.96,0,.1.08.22.18.24.32.05.59-.12.75-.39.06-.1.1-.21.15-.31.05-.09.09-.15.17-.17l-.32-.24c-.02.48-.01,1.02.36,1.37.33.3.86.44,1.25.17.2-.14.32-.34.42-.55.12-.25.24-.5.36-.75.23-.5.44-1.01.64-1.53.22-.58.42-1.17.6-1.76.09-.31-.39-.44-.48-.13-.28.92-.6,1.83-.99,2.72-.19.44-.39.88-.61,1.31-.08.15-.17.29-.32.33-.12.03-.26,0-.39-.07-.37-.21-.36-.7-.34-1.11,0-.16-.17-.29-.32-.24-.25.07-.41.27-.52.49-.04.09-.07.18-.13.26-.02.03-.06.07-.09.09-.03.02-.05.03-.07.03l.18.24c-.02-.99.02-1.97.12-2.96.01-.13-.12-.25-.25-.25-.15,0-.24.12-.25.25h0Z"/>
  <path class="cls-1" d="M18.38,18.73c-.53-.04-1,.3-1.27.73-.13.21-.23.45-.32.68-.1.25-.18.52-.18.8,0,.17.03.36.18.47.12.09.27.12.41.14.25.03.5-.05.72-.16.43-.22.72-.66.85-1.12.08-.28.13-.6.07-.89s-.28-.54-.56-.65c-.12-.05-.28.05-.31.17-.03.14.04.26.17.31.05.02,0,0-.01,0,0,0,.03.02.03.02.01,0,.04.03.06.04,0,0-.04-.03-.02-.01,0,0,.02.01.03.02,0,0,.05.05.05.05,0,0-.04-.05,0-.01,0,0,.01.02.02.03.01.02.02.03.03.05.03.06-.01-.04,0,.01,0,.03.02.06.02.08,0,.01,0,.03,0,.04,0,.03.02.02,0,0,0,.01,0,.06,0,.07,0,.06,0,.12,0,.18,0,.01,0,.03,0,.04,0,0,0-.04,0-.01,0,.02,0,.05-.01.07,0,.05-.02.1-.03.15-.02.09-.05.18-.08.27,0,.01,0,.02-.01.03-.01.03.02-.04,0,0,0,.02-.02.04-.03.06-.02.05-.05.09-.07.14-.02.04-.05.08-.08.11s0,0,0,0c0,0-.02.02-.02.03-.02.02-.04.04-.06.06-.03.03-.06.07-.1.1-.02.01-.04.03-.05.04,0,0,.05-.03,0,0,0,0-.02.01-.03.02-.04.03-.08.05-.12.07-.02,0-.04.02-.06.03,0,0-.04.02-.01,0,.03-.02-.01,0-.02,0-.04.02-.09.03-.14.04-.02,0-.04,0-.06.01,0,0-.05,0-.01,0,.04,0-.01,0-.02,0-.04,0-.09,0-.13,0-.01,0-.02,0-.04,0-.04,0,.05,0,.01,0-.03,0-.05-.01-.08-.02-.01,0-.02,0-.03-.01-.04-.01,0,0,0,0,0-.01-.06-.03,0,.01h0s-.01-.01,0,0c0,.03,0,0,0-.01,0-.03,0,.02,0,.02,0-.02,0-.04,0-.06,0-.05,0-.11,0-.16,0-.01,0-.02,0-.03,0-.05,0,0,0,0,0-.03.01-.06.02-.09.02-.11.06-.22.1-.33.02-.05.04-.1.06-.15.01-.03.02-.05.03-.08,0,0-.02.05,0,0,0-.01.01-.03.02-.04.04-.09.08-.19.13-.28.03-.05.05-.09.08-.14.02-.02.03-.05.05-.07.02-.03-.03.03,0,0,.01-.01.02-.03.03-.04.04-.04.08-.08.12-.12,0,0,.02-.02.03-.02,0,0,.04-.04.02-.01-.03.02,0,0,.01,0,.01,0,.02-.02.04-.03.05-.03.09-.06.14-.08,0,0,.03-.02.03-.02,0,0-.05.02,0,0,.03-.01.06-.02.09-.03.02,0,.05-.01.07-.02.01,0,.02,0,.04,0,.06-.01-.04,0,0,0,.06,0,.12,0,.18,0,.13.01.26-.12.25-.25,0-.14-.11-.24-.25-.25h0Z"/>
  <path class="cls-1" d="M19.49,18.8c-.11.73-.24,1.46-.37,2.19-.02.13.04.28.17.31s.27-.04.31-.17c0-.03.02-.06.03-.09,0-.01,0-.02.01-.03.01-.04-.02.03,0,0,.02-.05.05-.1.08-.15s.06-.1.09-.15c.02-.02.03-.05.05-.07,0-.01.02-.03.03-.04,0,0,.04-.05.02-.03-.02.02,0-.01,0-.01,0-.01.02-.02.03-.04.02-.02.04-.05.06-.07.04-.05.08-.09.12-.14.08-.09.17-.19.25-.28.16-.18.33-.36.52-.52.05-.04.09-.08.14-.12,0,0,.02-.02.03-.02-.03.02,0,0,0,0,.03-.02.05-.04.08-.06.09-.07.19-.13.29-.18.06-.03.12-.06.18-.09,0,0,.04-.02,0,0,.01,0,.03-.01.04-.02.03-.01.07-.02.1-.04.13-.04.26-.07.4-.09s.21-.19.17-.31c-.05-.14-.17-.19-.31-.17-.52.07-.99.33-1.39.66-.2.17-.39.36-.56.55s-.35.38-.51.58c-.19.24-.36.5-.45.8l.48.13c.13-.73.26-1.46.37-2.19.02-.13-.03-.28-.17-.31-.12-.03-.29.04-.31.17h0Z"/>
  <path class="cls-1" d="M23.81,14.58c-.61,2.12-1.1,4.27-1.47,6.45-.05.31.43.45.48.13.37-2.17.86-4.33,1.47-6.45.09-.31-.39-.44-.48-.13h0Z"/>
  <path class="cls-1" d="M23.15,20.14c.03-.11.07-.21.11-.32,0,0,.02-.05,0-.02s0-.01,0-.02c.01-.02.02-.05.03-.07.02-.05.05-.1.08-.15.06-.1.12-.2.18-.3.03-.04.06-.09.09-.13.02-.02.03-.05.05-.07,0-.01.02-.02.03-.04,0,0,.04-.05.02-.03-.02.02,0,0,0,0,0-.01.02-.02.03-.04.02-.02.04-.05.06-.07.04-.05.08-.09.12-.14.08-.09.16-.17.24-.26.17-.17.34-.34.52-.5.2-.18.41-.36.63-.54.1-.08.09-.27,0-.35-.11-.1-.25-.09-.35,0-.75.63-1.53,1.29-2.01,2.15-.13.24-.24.49-.32.76-.04.13.04.28.17.31s.27-.04.31-.17h0Z"/>
  <path class="cls-1" d="M23.11,20.14l.97.88.28.25s.11.07.18.07c.06,0,.13-.03.18-.07s.08-.11.07-.18-.02-.13-.07-.18l-.97-.88-.28-.25s-.11-.07-.18-.07c-.06,0-.13.03-.18.07s-.08.11-.07.18.02.13.07.18h0Z"/>
  <path class="cls-1" d="M30.12,14.8c-.23,1.16-.47,2.32-.69,3.48s-.4,2.33-.42,3.51c0,.32.49.32.5,0,.02-1.16.2-2.31.41-3.45s.45-2.28.68-3.42c.06-.31-.42-.45-.48-.13h0Z"/>
  <path class="cls-1" d="M29.74,20.57s.08-.02.12-.03c.02,0,.04,0,.06-.01-.06,0,0,0,.01,0,.08,0,.16-.01.24,0,.04,0,.08,0,.12,0,.07,0-.05-.01.01,0,.02,0,.04,0,.06.01.08.02.16.04.23.06.02,0,.04.01.06.02-.06-.03,0,0,0,0,.03.02.07.03.1.05.01,0,.02.01.03.02.05.03-.04-.04,0,0,.01.01.02.02.04.04.02.02.02.02,0-.01,0,0,.01.02.02.03h0s.01.03,0,0c.01.01.01.04.02.06.02.06,0-.05,0,.01,0,.01,0,.03,0,.04,0,.07,0,.15,0,.22,0,.03,0,.06,0,.09,0,.02-.02.07,0,.09v-.03s0,.02,0,.03c0,.02,0,.03,0,.05,0,.04-.02.07-.03.11,0,.01,0,.03-.01.04-.01.04-.02,0,0,0-.02.01-.03.07-.04.08,0,.01-.02.03-.03.04-.03.05.04-.04,0,0,0,0-.06.07-.07.07l.02-.02s-.02.01-.03.02c-.02.01-.03.02-.05.03-.01,0-.04.02-.05.03h.03s-.02,0-.04,0c-.07.03-.15.04-.22.06-.01,0-.08.01-.01,0-.02,0-.04,0-.06,0-.04,0-.08,0-.13.01-.09,0-.18.01-.27.01-.1,0-.2,0-.29,0-.05,0-.11,0-.16-.01-.02,0-.05,0-.07,0-.01,0-.03,0-.04,0,.03,0,.03,0,0,0-.04,0-.09-.02-.13-.03-.01,0-.04,0-.05-.02.03.01.03.01,0,0-.01,0-.02-.01-.03-.02h-.02s-.02-.02,0,0c0,0-.05-.04-.05-.05l.02.02s-.01-.02-.02-.03c.01.04.02.04,0,.02,0-.01,0-.02,0-.03-.02-.13-.19-.21-.31-.17-.14.04-.2.17-.17.31.04.23.25.38.46.44s.42.07.63.08.4,0,.6-.02.41-.06.6-.16c.34-.18.47-.55.5-.91.01-.17.02-.36-.02-.53-.05-.2-.21-.36-.39-.46-.41-.21-.91-.25-1.35-.14-.13.03-.22.18-.17.31s.17.21.31.17h0Z"/>
  <path class="cls-1" d="M32.04,19.95c.25.03.5-.03.72-.15.2-.1.4-.28.49-.49.1-.22.12-.49-.01-.71-.16-.26-.45-.34-.74-.29-.5.09-.87.59-.94,1.07-.04.27,0,.54.1.79s.31.44.55.55c.27.13.56.22.86.28.33.07.67.1,1.01.05.06,0,.12-.07.15-.11.03-.05.04-.13.03-.19s-.06-.12-.11-.15c-.06-.03-.12-.03-.19-.03.06,0-.02,0-.04,0-.03,0-.06,0-.08,0-.06,0-.13,0-.19,0-.06,0-.11,0-.17-.01-.01,0-.03,0-.04,0,.05.01.02,0,0,0-.03,0-.07-.01-.1-.02-.23-.04-.45-.1-.67-.18-.02,0-.05-.02-.07-.03-.02,0-.09-.03-.03-.01-.05-.02-.1-.05-.15-.07-.02-.01-.04-.02-.06-.04-.01,0-.02-.01-.03-.02-.01,0-.04-.02,0,0-.04-.02-.08-.07-.11-.11-.01-.01-.04-.03,0,0,0,0-.02-.02-.02-.03-.01-.02-.03-.04-.04-.06s-.02-.04-.03-.06c0,0,0-.02-.01-.03.02.02.02.04,0,0-.02-.05-.03-.09-.04-.14,0-.02,0-.05-.01-.07,0,0,0,.06,0,.02,0-.01,0-.03,0-.04,0-.05,0-.09,0-.14,0-.02,0-.05,0-.07,0-.04-.01.06,0,0,0-.01,0-.03,0-.04,0-.04.02-.09.03-.13,0-.02.02-.04.02-.06.01-.03-.02.04,0,.01,0-.01.01-.03.02-.04.02-.04.05-.09.07-.13,0,0,.05-.07.03-.04s0,0,0,0c0-.01.02-.02.03-.03.03-.03.07-.07.1-.1s-.01,0-.01,0c0,0,.03-.02.03-.02.02-.01.04-.03.06-.04.02-.01.04-.02.06-.03.04-.02,0,0-.01,0,0,0,.02,0,.03-.01.02,0,.04-.01.06-.02.01,0,.02,0,.03,0,.05-.01-.06,0,0,0,.02,0,.04,0,.06,0,0,0,.03,0,.03,0,0,0-.06-.01-.02,0,.02,0,.04.01.06.02.04.01-.01,0-.02,0,0,0,.03.02.04.02.02.01,0,.02-.02-.01,0,0,.02.01.02.02,0,0,.01.01.02.02.03.03-.01-.01-.01-.02,0,.01.02.03.03.05.02.03,0-.02,0-.02,0,.01,0,.03.01.04,0,.02,0,.04.01.05,0,0,0-.07,0-.03,0,0,0,.02,0,.03,0,.02,0,.04,0,.06,0,.04,0-.02,0-.02,0,.01,0,.03,0,.04,0,.02-.01.04-.02.06,0,0-.02.04,0,0,.02-.04,0,0,0,0-.01.02-.02.04-.04.06,0,0-.01.02-.02.03l.02-.03s-.01.02-.02.02c-.03.04-.06.07-.1.1,0,0-.02.02-.02.02.03-.02.03-.03.02-.02,0,0-.01,0-.02.01-.02.01-.04.03-.06.04-.02.01-.05.03-.07.04,0,0-.02,0-.03.01-.03.01.05-.02,0,0-.05.02-.1.03-.15.05,0,0-.07.01-.07.01,0,0,.06,0,.02,0-.02,0-.03,0-.05,0-.06,0-.11,0-.17,0-.13-.01-.26.12-.25.25,0,.15.11.24.25.25h0Z"/>
  <path class="cls-1" d="M36.04,14.82c-.46,1.76-.87,3.53-1.23,5.31-.06.31.38.44.48.13.08-.25.25-.46.47-.6.19-.12.59-.33.76-.09s.15.63.13.91c-.03.37-.13.73-.23,1.08-.08.31.4.44.48.13.13-.47.25-.95.26-1.43,0-.4-.06-.9-.41-1.16s-.87-.1-1.22.11-.6.53-.72.91l.48.13c.36-1.78.77-3.55,1.23-5.31.08-.31-.4-.44-.48-.13h0Z"/>
  <path class="cls-1" d="M37.53,20.11l.03,1.82c0,.13.11.26.25.25s.25-.11.25-.25l-.03-1.82c0-.13-.11-.26-.25-.25s-.25.11-.25.25h0Z"/>
  <path class="cls-1" d="M37.84,19.04c.06,0,.12-.01.18-.03.04-.01.07-.03.11-.04.02,0,.04-.02.05-.03.03-.02.05-.04.07-.06.02-.02.04-.05.04-.09.01-.03.01-.07,0-.1,0-.03-.01-.06-.03-.09l-.04-.05s-.07-.05-.11-.06h-.07s-.09,0-.13.03c-.02.01-.04.02-.06.03l.06-.03s-.09.03-.13.04h.07s-.01,0-.02,0c-.03,0-.07,0-.1.02-.03.01-.06.03-.08.05-.02.02-.04.05-.05.08-.02.03-.02.06-.02.1v.07s.04.08.07.11l.05.04s.08.03.13.03h0Z"/>
  <path class="cls-1" d="M39.31,19.03c-.02.2-.04.4-.06.6-.01.1-.02.2-.04.3,0,.05-.01.1-.02.14,0,.03,0,.05-.01.08,0-.04,0,.04,0,.04-.05.4-.12.79-.19,1.19-.02.12.02.24.14.29.11.05.25,0,.31-.1.16-.31.33-.61.54-.89,0,0,.04-.05.01-.02.01-.02.03-.04.04-.06.03-.03.05-.06.08-.09.06-.06.12-.12.18-.18.03-.02.05-.05.08-.07.02-.01.03-.03.05-.04,0,0,.04-.03,0,0,.07-.05.14-.1.21-.14.06-.04.12-.07.19-.1.02,0,.04-.02.06-.03-.05.02.01,0,.02,0,.04-.02.08-.03.12-.04.07-.02.14-.04.21-.05.01,0,.06-.02.03,0h.02s-.03,0-.04-.02c.04.02,0,0-.01,0-.02-.03-.02-.03-.01-.01-.01-.04-.02-.04,0-.01,0,.01,0,.03,0,.04.01.03,0-.06,0,0,0,.04,0,.07,0,.11,0,.08,0,.16.01.25,0,.16,0,.32,0,.47,0,.04,0,.09-.01.13,0,.07,0-.05,0,.02,0,.02,0,.04-.01.06-.02.09-.04.18-.06.27-.01.04-.03.08-.04.12-.02.07.02-.04,0,.02,0,.02-.02.04-.03.06-.04.08-.09.16-.15.24-.08.11-.02.28.09.34.13.07.26.02.34-.09.23-.31.33-.68.38-1.06.02-.18.02-.36.02-.54s0-.36-.04-.54c-.02-.11-.09-.21-.18-.28-.12-.08-.26-.07-.4-.05-.19.03-.36.09-.53.17-.33.15-.62.39-.85.66-.29.34-.51.73-.72,1.12l.46.19c.15-.82.27-1.64.34-2.47.01-.13-.12-.26-.25-.25-.15,0-.24.11-.25.25h0Z"/>
  <path class="cls-1" d="M46.42,14.54c-.69,1.05-1.17,2.23-1.47,3.45-.15.59-.26,1.2-.34,1.81-.09.64-.19,1.32-.13,1.97.03.32.53.32.5,0-.06-.63.03-1.28.12-1.9.08-.59.19-1.17.33-1.74.3-1.18.75-2.31,1.42-3.33.18-.27-.26-.52-.43-.25h0Z"/>
  <path class="cls-1" d="M45.22,19.35c.15-.27.08-.62-.14-.83s-.54-.29-.83-.26c-.56.05-1.1.4-1.48.81-.18.19-.33.41-.45.64-.14.28-.23.62-.11.92.05.13.15.21.3.22.07,0,.15,0,.22-.01.15-.02.31-.04.46-.07.28-.07.53-.2.76-.38.21-.16.38-.36.56-.55.09-.09.18-.19.27-.28.05-.05.1-.09.15-.13.04-.03,0,0,0,0,.01-.01.03-.02.05-.03.03-.02.06-.04.1-.06.11-.07.16-.23.09-.34-.07-.11-.22-.16-.34-.09-.37.23-.64.57-.94.88-.07.07-.15.15-.23.21,0,0-.02.02-.03.02,0,0,.04-.03,0,0-.02.01-.04.03-.06.04-.04.03-.08.06-.13.08s-.09.05-.14.07c.04-.02,0,0,0,0-.01,0-.03.01-.04.02-.04.01-.07.02-.11.03-.06.02-.12.03-.18.04-.03,0-.06.01-.09.02-.02,0-.03,0-.05,0-.02,0-.03,0,0,0-.06,0-.12.01-.18.02-.03,0-.07,0-.09,0h-.02c.05.04.11.09.16.13,0-.02-.02-.05-.02-.06,0-.01,0-.03,0-.04,0,.01,0,.05,0,0,0-.03,0-.06,0-.09,0-.01,0-.03,0-.04,0,.01,0,.05,0,0,0-.03.01-.07.02-.1,0-.03.02-.06.03-.09,0-.01.03-.08.01-.04.02-.05.05-.11.08-.16.05-.1.11-.19.17-.27,0,0,.03-.04.01-.01s0,0,.01-.01c.02-.02.03-.04.05-.06.04-.04.08-.09.12-.13.08-.08.16-.15.25-.22.03-.02-.03.02,0,0,.01,0,.02-.02.03-.02.02-.02.04-.03.07-.05.05-.03.1-.07.15-.1s.1-.06.15-.08c.03-.01.05-.03.08-.04.01,0,.03-.01.04-.02-.03.01,0,0,.01,0,.07-.03.13-.05.2-.06.01,0,.03,0,.04,0,0,0,.07-.01.03,0-.03,0,.01,0,.02,0,.02,0,.03,0,.05,0,.03,0,.06,0,.09,0,.01,0,.03,0,.04,0,.03,0-.04,0,0,0,.03,0,.07.01.1.02.01,0,.03,0,.04.01,0,0,.06.02.03,0-.03-.01,0,0,.02,0,.01,0,.03.02.04.02.01,0,.02.01.03.02.05.03-.03-.03.01,0,0,0,.02.02.03.03,0,0,.04.05.02.02-.02-.03,0,0,0,.01,0,.01.01.03.02.04.02.03.01,0,0-.01,0,0,.01.03.01.04,0,.01,0,.02,0,.03,0,.03,0-.05,0,0,0,.01,0,.02,0,.03,0,.05.02-.05,0,0,0,0-.01.03,0,.03v-.03s0,.02,0,.03c-.06.11-.03.28.09.34s.27.03.34-.09h0Z"/>
  <path class="cls-1" d="M51.38,15.02c-.58,2.23-1.2,4.46-1.85,6.67-.09.31.39.44.48.13.65-2.21,1.26-4.44,1.85-6.67.08-.31-.4-.44-.48-.13h0Z"/>
  <path class="cls-1" d="M49.38,18.39c.96.06,1.91-.09,2.86-.24.13-.02.21-.19.17-.31-.05-.14-.17-.2-.31-.17-.47.07-.88.14-1.34.18s-.92.07-1.39.04c-.13,0-.26.12-.25.25,0,.14.11.24.25.25h0Z"/>
  <path class="cls-1" d="M53.87,14.81l-.97,5.61c-.06.32.37.43.48.13.1-.25.2-.52.42-.69.16-.12.45-.2.63-.07.1.07.1.19.1.3,0,.19,0,.38-.01.57,0,.39-.02.79-.02,1.18,0,.32.49.32.5,0,.01-.51.02-1.02.03-1.53,0-.42-.03-.84-.47-1.01-.32-.13-.73-.07-1.01.13-.34.24-.5.61-.64.98l.48.13.97-5.61c.05-.31-.43-.45-.48-.13h0Z"/>
  <path class="cls-1" d="M55.58,19.8c.5.11,1.09-.09,1.31-.58.11-.24.14-.54,0-.77-.16-.25-.47-.33-.74-.23-.45.16-.75.63-.82,1.09-.07.5.07,1.07.53,1.34.25.14.54.23.82.28.3.06.6.08.91.06.13,0,.26-.11.25-.25,0-.13-.11-.26-.25-.25-.11,0-.22,0-.33,0-.05,0-.1,0-.16,0-.03,0-.06,0-.08,0-.01,0-.03,0-.04,0-.04,0,.06,0,0,0-.22-.03-.43-.08-.64-.16-.02,0-.04-.02-.07-.02-.01,0-.02,0-.04-.01-.03-.01.01,0,.01,0-.02,0-.05-.02-.07-.03-.03-.01-.05-.03-.08-.04-.01,0-.02-.01-.03-.02,0,0-.04-.03-.01,0,.03.02,0,0,0,0,0,0-.02-.02-.03-.03-.02-.02-.03-.04-.05-.05-.02-.02-.02-.01,0,0-.01,0-.02-.03-.03-.04-.02-.04-.05-.08-.07-.12-.02-.04,0,.01,0,.01,0,0-.01-.03-.01-.03,0-.02-.02-.05-.02-.07-.01-.04-.02-.08-.03-.12,0-.01,0-.02,0-.03,0-.04,0,.01,0,.02,0,0,0-.06,0-.07,0-.04,0-.09,0-.13,0-.02,0-.04,0-.06,0-.01,0-.02,0-.03,0-.03,0,.06,0,0,.02-.09.04-.17.07-.26,0-.01,0-.02.01-.03,0,0-.02.05,0,.01,0-.02.02-.04.03-.05.02-.04.05-.09.07-.13.01-.02.03-.04.04-.06.03-.04-.03.04,0-.01.03-.04.06-.07.1-.11,0,0,.05-.04.03-.02s0,0,0,0c0,0,.02-.01.03-.02.02-.01.03-.02.05-.03,0,0,.02-.01.03-.02.05-.03-.04.01,0,0,.02,0,.04-.01.06-.02.01,0,.02,0,.03,0,.03,0-.03,0-.03,0,.02,0,.04,0,.06,0,0,0,.03,0,.03,0-.02,0-.06-.01-.01,0,.06.02-.04-.03.01,0,0,0,.02.01.02.01-.02,0-.03-.03-.01,0,0,0,.02.02.02.02,0,0-.03-.05-.01-.01,0,0,.01.03.02.03-.01,0-.02-.05,0,0,0,.02,0,.04.01.05.01.04,0-.01,0-.02,0,0,0,.02,0,.03,0,.02,0,.04,0,.07,0,0,0,.02,0,.03,0-.02,0-.05,0,0,0,.02-.01.05-.02.07,0,0,0,.02,0,.02-.01.04-.01.01,0,0-.02.02-.02.05-.04.07,0,.01-.03.06-.04.07.02,0,.03-.03,0,0,0,.01-.02.02-.03.03-.02.02-.04.04-.06.06,0,0-.03.02-.03.02,0-.01.04-.03,0,0-.02.01-.04.03-.07.04-.01,0-.02.01-.03.02,0,0-.05.02-.02,0,.03-.01,0,0,0,0-.02,0-.03.01-.05.02-.05.02-.11.02-.16.04,0,0,.05,0,.02,0-.02,0-.03,0-.05,0-.03,0-.05,0-.08,0-.02,0-.06,0-.08,0,.03.02.04,0,.01,0-.02,0-.04,0-.05-.01-.13-.03-.28.04-.31.17-.03.13.04.28.17.31h0Z"/>
  <path class="cls-1" d="M58.77,21.7c-.03-.56.08-1.1.23-1.64s.35-1.11.53-1.66c.04-.13-.05-.27-.17-.31-.14-.04-.27.05-.31.17-.18.56-.38,1.12-.53,1.69s-.27,1.15-.24,1.74c0,.13.11.25.25.25.13,0,.26-.11.25-.25h0Z"/>
  <path class="cls-1" d="M59.06,20.49s.02-.05.03-.08c0-.01.01-.03.01-.04-.02.05,0,.01,0,0,.02-.05.05-.1.08-.16s.06-.09.09-.14c0,0,.01-.02.02-.03-.03.04,0,0,0,0,.02-.03.05-.05.07-.08.04-.04.08-.08.12-.12.02-.02.04-.03.06-.05.01,0,.02-.02.03-.03.02-.02-.03.02,0,0,.1-.07.2-.13.31-.19.01,0,.03-.01.04-.02,0,0,.05-.02.02,0s.02,0,.02,0c.01,0,.03-.01.04-.02.02,0,.05-.02.07-.03.01,0,.03,0,.04-.01.01,0,.02,0,.04,0,.03,0,.02,0-.04,0-.02,0-.04-.02-.05-.03,0,0-.03-.05,0,0h0s0-.03,0,0c-.02.02.06.03,0-.01.02.01,0,.17-.01.19-.01.11-.04.26-.07.4s-.08.29-.12.43c-.11.32-.24.64-.37.96-.04.1.03.24.11.28s.23.05.3-.04c.19-.23.36-.48.53-.73.08-.12.16-.24.25-.36.04-.05.08-.11.12-.16.01-.02.02-.03.03-.05,0,0-.03.03,0,0,.02-.03.05-.06.07-.09.09-.11.19-.22.3-.32.05-.05.1-.09.15-.13.04-.03-.05.03.02-.01.01,0,.03-.02.04-.03s.03-.02.04-.02c-.02,0-.02,0,0,0h-.02s-.01,0,0,0c0,0-.06-.04-.05-.02.02.02-.03-.05,0,0,0,0-.02-.05,0-.01,0,.01,0,.02,0,.03,0,0,0,.06,0,.02,0-.04,0,.01,0,.02,0,.02,0,.05,0,.07,0,.18.02.36.03.53.02.4.04.81.06,1.21,0,.13.11.26.25.25.13,0,.26-.11.25-.25-.02-.39-.04-.79-.06-1.18,0-.19-.02-.38-.03-.58,0-.17-.03-.34-.16-.47-.17-.17-.43-.13-.61,0-.14.1-.27.22-.39.34-.22.23-.41.49-.6.76-.1.15-.2.3-.3.44-.05.07-.1.14-.15.21-.03.04-.06.07-.08.11.03-.03,0,0,0,0-.02.02-.04.05-.06.07l.42.24c.27-.65.53-1.3.59-2.01.01-.18-.02-.38-.19-.48s-.35-.05-.52.02c-.29.11-.55.27-.77.48s-.41.5-.5.81c-.04.12.05.28.17.31.14.03.27-.04.31-.17h0Z"/>
</svg>